<svg width="56" height="56" viewBox="0 0 56 56" fill="none" xmlns="http://www.w3.org/2000/svg">
<path fill-rule="evenodd" clip-rule="evenodd" d="M28 50.4C40.3712 50.4 50.4 40.3712 50.4 28C50.4 24.8453 49.7479 21.8429 48.571 19.1203L38.9886 37.2204C37.1252 40.7402 32.2869 41.2447 29.7373 38.1853L21.0822 27.7991L12.4434 44.1168C16.4727 48.007 21.9569 50.4 28 50.4ZM7.14063 36.1802L15.6116 20.1795C17.4749 16.6598 22.3133 16.1552 24.8628 19.2147L33.5179 29.6008L43.1168 11.4697C39.1325 7.82415 33.826 5.59998 28 5.59998C15.6288 5.59998 5.60001 15.6288 5.60001 28C5.60001 30.8868 6.1461 33.6461 7.14063 36.1802Z" fill="url(#paint0_linear_998_159909)"/>
<defs>
<linearGradient id="paint0_linear_998_159909" x1="-2.99809" y1="-0.748217" x2="52.0304" y2="-7.91175" gradientUnits="userSpaceOnUse">
<stop stop-color="#C323EB"/>
<stop offset="0.265625" stop-color="#EB2353"/>
<stop offset="1" stop-color="#F49136"/>
</linearGradient>
</defs>
</svg>
