<svg width="500" height="500" viewBox="0 0 500 500" fill="none" xmlns="http://www.w3.org/2000/svg">
<path d="M108.169 339.571C141.925 259.195 150.824 241.405 198.657 192.314C199.255 191.701 199.427 190.78 199.056 190.008C195.707 183.047 179.911 148.503 179.911 116.283C179.911 80.2419 187.562 68.0463 206.651 69.1975C215.695 69.7429 222.955 82.2991 228.091 95.3622C224.787 78.3967 224.4 58.8816 236.878 50.5954C252.004 40.5508 272.12 43.2333 274.442 43.5849C274.593 43.6078 274.717 43.6164 274.87 43.6084C277.683 43.4605 308.61 42.062 333.235 50.5954C344.329 54.4396 357.632 64.3684 363.021 73.2663C369.215 83.4922 366.638 101.611 361.885 118.541C361.197 120.992 364.561 122.477 365.927 120.329C377.251 102.519 392.651 85.8629 409.525 88.9615C443.99 95.2902 432.777 137.791 422.314 152.323C412.741 165.619 368.137 212.487 360.612 220.369C359.966 221.046 359.908 222.063 360.424 222.843C406.887 292.985 434.403 344.358 440.806 415.575C440.874 416.33 440.516 417.061 439.866 417.452C345.919 474.026 174.2 466.123 60.6667 417.534C59.7147 417.126 59.2572 416.045 59.569 415.057C69.0364 385.08 59.9804 376.071 107.505 340.42C107.79 340.206 108.031 339.899 108.169 339.571Z" fill="white"/>
<path d="M179.911 116.283C179.911 148.503 195.707 183.047 199.056 190.008C199.427 190.78 199.255 191.701 198.657 192.314C150.824 241.405 141.925 259.195 108.169 339.571C108.031 339.899 107.79 340.206 107.505 340.42C59.9804 376.071 69.0364 385.08 59.569 415.057C59.2572 416.045 59.7147 417.126 60.6667 417.534C174.2 466.123 345.919 474.026 439.866 417.452C440.516 417.061 440.874 416.33 440.806 415.575C434.403 344.358 406.887 292.985 360.424 222.843C359.908 222.063 359.966 221.046 360.612 220.369C368.137 212.487 412.741 165.619 422.314 152.323C432.777 137.791 443.99 95.2902 409.525 88.9615C392.651 85.8629 377.251 102.519 365.927 120.329C364.561 122.477 361.197 120.992 361.885 118.541C366.638 101.611 369.214 83.4922 363.021 73.2663C357.632 64.3684 344.329 54.4396 333.235 50.5954C308.61 42.062 277.683 43.4605 274.87 43.6084C274.717 43.6164 274.593 43.6078 274.442 43.5849C272.12 43.2333 252.004 40.5508 236.878 50.5954C221.851 60.5744 225.482 86.8387 230.396 105.323C231.018 107.664 232.252 107.288 231.509 104.983C226.44 89.2527 217.934 69.8779 206.651 69.1975C187.562 68.0463 179.911 80.2419 179.911 116.283Z" stroke="#E1306C" stroke-opacity="0.3" stroke-width="5"/>
<path d="M363.348 307.018C360.963 302.408 358.706 297.704 356.195 293.158C353.684 288.612 351.14 284.034 348.216 279.679C346.181 276.5 344.115 273.321 341.858 270.142C334.571 258.94 326.675 248.147 318.206 237.811C316.267 235.554 314.328 233.265 312.325 231.072L306.126 224.714C303.487 221.98 300.563 219.5 297.86 216.862C296.525 215.495 295.063 214.287 293.728 212.92C292.393 211.553 291.153 210.122 289.881 208.692C288.61 207.261 289.309 206.18 291.693 206.498C293.249 206.727 294.774 207.133 296.239 207.706C298.196 208.395 299.992 209.477 301.516 210.885C313.354 221.561 324.012 233.476 333.306 246.426C336.008 250.368 338.901 254.247 341.858 258.157C344.814 262.067 347.612 266.073 350.25 270.142C356.068 279.138 361.599 288.294 366.558 297.767C369.737 303.521 372.503 309.529 375.396 315.442C377.462 319.957 379.37 324.598 381.341 329.176L386.364 342.909C387.603 346.565 388.939 350.125 390.306 353.717C391.673 357.31 392.69 360.966 393.866 364.621C394.428 366.203 394.895 367.816 395.265 369.453C396.664 375.811 396.409 377.751 394.534 379.404C394.142 379.81 393.717 380.182 393.262 380.516C391.8 381.343 389.829 379.118 388.525 374.826C384.679 362.11 380.705 348.885 375.587 335.82C373.87 330.924 371.645 326.283 369.674 321.355C367.703 316.428 365.287 311.818 363.062 307.113L363.348 307.018Z" fill="#231F20"/>
<path d="M191.173 419.364C178.47 417.297 166.002 413.986 153.947 409.477C147.65 407.139 141.761 403.824 136.495 399.654C133.648 397.321 131.32 394.419 129.66 391.134C129.469 390.689 129.246 390.276 129.088 389.831L128.547 388.146C127.784 386.843 128.547 385.285 128.547 384.458L129.628 379.626C132.062 370.592 135.164 361.751 138.911 353.177C152.22 323.432 168.697 295.209 188.058 268.997C192.254 263.148 196.8 257.489 201.187 251.767L208.117 243.438L211.519 239.306L215.175 235.332C227.446 221.662 240.766 208.342 256.788 198.901C261.715 195.88 261.715 197.438 258.632 201.444C256.584 204.116 254.319 206.615 251.86 208.914C248.936 211.807 245.502 215.272 241.656 218.451C214.285 242.898 191.65 272.494 171.718 304.284C170.224 306.668 168.539 309.021 167.267 311.469L163.071 318.844C160.178 323.74 157.635 328.858 155.028 333.976C152.421 339.094 150.132 344.34 147.653 349.521C145.173 354.703 143.043 360.044 141.295 365.416C140.214 368.373 139.038 371.266 138.116 374.254C137.113 377.158 136.285 380.12 135.636 383.123C135.326 384.294 135.092 385.483 134.937 386.684C135.082 387.173 135.263 387.651 135.477 388.114C135.739 388.716 136.058 389.291 136.431 389.831C138.001 392.171 139.983 394.207 142.28 395.839C147.255 399.305 152.691 402.055 158.43 404.009C164.285 406.123 170.262 407.885 176.327 409.286C191.43 412.674 206.746 415.032 222.168 416.344C245.577 418.46 269.096 419.087 292.583 418.219C310.488 417.511 328.322 415.567 345.959 412.402C349.805 411.671 353.525 410.812 357.339 409.89C364.397 408.206 368.816 406.711 371.899 405.885C374.1 405.246 376.357 404.82 378.639 404.613C379.497 404.613 380.419 404.232 381.055 404.232C381.69 404.232 381.754 404.518 381.563 405.154C381.158 406.199 380.528 407.143 379.719 407.919C376.445 410.948 372.535 413.208 368.275 414.532C352.229 419.523 335.665 422.658 318.905 423.878C301.879 425.413 284.785 426.071 267.692 425.849C242.048 425.728 216.454 423.602 191.142 419.491L191.173 419.364Z" fill="#231F20"/>
<path d="M274.654 285.496C282.951 284.511 291.248 283.462 299.291 282C303.198 281.308 307.054 280.353 310.831 279.139C311.721 278.852 312.58 278.534 313.342 278.217L314.137 277.867H314.36C314.678 277.867 315.027 277.39 314.9 276.977C314.849 276.727 314.715 276.503 314.519 276.341L314.137 275.96C313.788 275.673 313.247 275.419 312.802 275.133C310.611 273.982 308.324 273.025 305.967 272.272C301.008 270.651 295.635 269.411 290.263 268.235C280.376 266.168 270.235 264.356 260.158 261.527C254.822 260.011 249.648 257.978 244.708 255.455C242.075 254.124 239.592 252.515 237.301 250.655C234.615 248.529 232.723 245.562 231.928 242.23C231.554 239.919 231.957 237.549 233.073 235.491C233.872 233.849 234.853 232.303 235.998 230.881C238.094 228.281 240.379 225.837 242.832 223.57C247.603 219.201 252.59 215.073 257.774 211.203L265.562 205.481L266.866 204.496C267.247 204.337 267.247 203.987 267.215 203.637V201.73C267.215 200.967 267.215 200.14 267.215 199.378C267.215 193.02 267.215 186.662 266.929 180.304C266.516 164.409 265.626 148.323 264.736 132.619C264.163 122.478 263.623 112.273 263.051 102.1C262.479 91.9275 262.192 81.6911 262.574 71.4548C262.892 65.0968 263.814 65.9551 265.181 71.2958C265.912 73.9344 266.738 77.6538 267.629 82.2951C268.515 87.5574 269.12 92.8633 269.441 98.1901C270.839 118.917 271.952 139.697 272.778 160.53C273.192 170.926 273.637 181.353 273.764 191.875C273.764 194.482 273.764 197.152 273.764 199.791C273.764 201.158 273.764 202.334 273.764 203.987C273.764 205.64 273.764 206.371 273.573 207.516C272.734 208.314 271.853 209.067 270.935 209.773L258.219 219.31C253.923 222.581 249.835 226.116 245.98 229.896C244.109 231.716 242.387 233.683 240.83 235.777C239.611 237.218 238.848 238.988 238.636 240.863C239.584 243.46 241.45 245.62 243.881 246.935C246.689 248.587 249.704 249.86 252.846 250.718C259.49 252.689 266.452 254.215 273.446 255.646C281.934 257.362 290.517 259.015 299.196 261.114C303.623 262.139 307.977 263.456 312.23 265.056C314.536 265.931 316.742 267.05 318.81 268.394L320.75 269.856C321.364 270.464 321.937 271.112 322.466 271.795C323.025 272.421 323.466 273.143 323.77 273.925C324.155 274.658 324.444 275.438 324.628 276.246C324.835 277.22 324.835 278.227 324.628 279.202C324.382 280.176 323.95 281.094 323.356 281.904C322.069 283.542 320.428 284.868 318.556 285.783C317.147 286.485 315.692 287.09 314.201 287.595C312.834 288.071 311.467 288.453 310.132 288.834C304.798 290.178 299.396 291.239 293.951 292.013C276.625 294.716 259.3 295.987 242.292 298.594C237.738 299.293 233.227 300.248 228.781 301.455C227.7 301.773 226.651 302.123 225.602 302.504L224.871 302.822L224.394 303.013C224.105 303.148 223.829 303.307 223.568 303.49C222.992 303.782 222.549 304.282 222.328 304.888C222.282 305.202 222.307 305.521 222.401 305.824C222.494 306.126 222.654 306.404 222.868 306.637C223.177 307.233 223.574 307.78 224.045 308.258C224.661 308.965 225.319 309.633 226.016 310.261C226.778 310.833 227.478 311.501 228.273 312.041L230.72 313.599C234.27 315.501 238.01 317.025 241.879 318.145C249.843 320.299 257.964 321.829 266.166 322.723C286.194 325.17 306.158 325.361 326.345 329.239C330.828 330.074 335.247 331.221 339.569 332.673C345.639 334.532 351.184 337.8 355.75 342.21C356.45 343.005 357.054 343.736 357.594 344.403C358.026 345.069 358.398 345.771 358.707 346.501C359.266 347.592 359.55 348.804 359.533 350.03C359.652 350.948 359.652 351.878 359.533 352.796C359.184 353.845 357.817 353.05 355.909 351.175C352.798 348.475 349.397 346.13 345.768 344.181C342.021 342.273 338.077 340.781 334.006 339.73C329.818 338.59 325.573 337.666 321.29 336.964C312.484 335.534 303.392 334.612 294.141 333.785C284.89 332.959 275.512 332.196 265.975 331.083C256.172 330.105 246.485 328.189 237.047 325.361C235.107 324.789 233.168 323.899 231.229 323.168C229.261 322.291 227.35 321.293 225.507 320.179C223.574 318.99 221.745 317.639 220.039 316.142C219.212 315.284 218.418 314.394 217.591 313.503C217.4 313.249 217.146 313.027 216.924 312.709L216.129 311.532L214.698 309.116C214.196 308.057 213.843 306.934 213.649 305.778C213.529 304.622 213.648 303.453 213.999 302.345C214.784 300.07 216.335 298.137 218.386 296.877C219.395 296.188 220.458 295.582 221.565 295.065C222.276 294.73 223.009 294.443 223.758 294.207C225.157 293.667 226.524 293.285 227.891 292.904C233.131 291.571 238.436 290.509 243.786 289.725C254.181 288.008 264.45 286.546 274.686 285.338L274.654 285.496Z" fill="#231F20"/>
<path d="M263.654 79.4023C263.654 79.4023 308.955 73.0443 321.384 82.772C322.296 83.4531 322.977 84.3974 323.335 85.4774C323.693 86.5575 323.711 87.7213 323.387 88.8121C322.529 92.2772 313.85 112.845 311.561 118.345C297.202 120.253 282.707 120.944 268.232 120.411C267.119 120.189 263.082 82.8356 263.654 79.4023Z" fill="#231F20"/>
<path d="M325.677 96.918C325.168 98.1578 315.853 120.824 313.882 122.636C311.911 124.448 291.248 124.639 291.248 124.639C291.248 124.639 291.788 132.682 297.034 132.936C302.279 133.19 340.077 134.875 343.097 130.361C345.1 127.373 335.881 118.44 334.133 116.946C334.133 116.946 346.849 109.634 346.849 106.296C346.753 101.305 325.677 96.918 325.677 96.918Z" fill="#231F20"/>
<path d="M133.538 374.095C133.538 374.095 93.7055 387.129 95.0406 400.194C95.0406 400.194 93.7055 419.268 174.706 420.762C188.301 421.534 201.929 421.534 215.525 420.762C215.525 420.762 141.581 410.526 135.223 393.105C128.865 375.684 133.538 374.095 133.538 374.095Z" fill="#231F20"/>
<path d="M399.652 120.888C400.061 120.718 400.501 120.635 400.945 120.645C401.388 120.655 401.824 120.758 402.225 120.947C402.626 121.135 402.983 121.406 403.274 121.74C403.564 122.075 403.782 122.467 403.912 122.891C407.027 131.474 390.655 124.131 399.652 120.888Z" stroke="#231F20" stroke-width="0.8" stroke-miterlimit="10"/>
<path d="M343.384 185.008C343.406 184.567 343.52 184.135 343.718 183.74C343.917 183.345 344.196 182.996 344.537 182.715C344.878 182.433 345.274 182.226 345.699 182.107C346.125 181.987 346.57 181.958 347.008 182.02C356.068 182.847 342.462 194.545 343.384 185.008Z" fill="#231F20"/>
<path d="M201.982 107.25C202.008 106.814 202.124 106.389 202.323 106C202.521 105.611 202.797 105.267 203.134 104.99C203.471 104.713 203.862 104.508 204.282 104.388C204.701 104.268 205.141 104.236 205.574 104.293C214.698 105.088 201.06 116.787 201.982 107.25Z" fill="#231F20"/>
<path d="M229.989 157.573C230.004 157.113 230.118 156.662 230.324 156.25C230.531 155.839 230.824 155.477 231.183 155.19C231.543 154.903 231.961 154.697 232.408 154.587C232.855 154.477 233.321 154.466 233.772 154.553C242.705 155.412 229.099 167.11 229.989 157.573Z" stroke="#231F20" stroke-width="0.8" stroke-miterlimit="10"/>
</svg>
