<svg width="500" height="500" viewBox="0 0 500 500" fill="none" xmlns="http://www.w3.org/2000/svg">
<path d="M70.4263 212.14C76.3201 224.349 91.8398 227.534 100.222 228.357C102.089 228.541 103.044 231.111 101.739 232.459C75.0952 259.951 62.5959 319.811 57.5091 350.337C57.4781 350.523 57.4195 350.704 57.3346 350.872C50.7769 363.877 32.4543 351.209 25.2717 400.925C25.1438 401.811 25.6075 402.703 26.4295 403.057C140.999 452.418 326.86 460.534 426.918 411.293C427.639 410.938 428.058 410.185 428.005 409.383C424.029 348.606 415.961 297.144 382.23 238.6C381.437 237.224 382.468 235.493 384.055 235.545C396.594 235.95 404.476 235.098 416.441 228.876C416.737 228.722 416.996 228.489 417.18 228.211C430.318 208.339 431.54 192.882 424.945 160.8C424.731 159.76 425.359 158.718 426.384 158.443L454.387 150.919C454.533 150.879 454.654 150.835 454.787 150.762C457.651 149.195 493.336 129.135 466.98 116.684C456.043 111.518 447.647 110.469 441.503 111.077C439.184 111.307 437.059 108.048 438.271 106.057C440.207 102.874 441.643 99.0943 441.643 94.8825C441.643 81.9422 444.001 66.0101 416.896 66.0101C395.756 66.0101 395.405 91.407 396.274 102.585C396.416 104.413 394.193 105.752 392.696 104.694C376.959 93.5697 318.04 55.9998 240.126 56C165.687 56.0002 111.983 94.7549 98.8647 105.196C97.5659 106.23 95.462 105.375 95.0663 103.763C93.751 98.404 90.0464 89.14 79.8542 85.4547C65.1234 80.1284 59.8207 78.4131 49.2145 94.8825C42.9383 104.628 46.9786 112.744 51.3236 117.746C52.6977 119.328 51.3533 123.019 49.2609 123.13C40.8262 123.58 28.457 125.751 25.0559 134.361C19.753 147.786 25.6448 157.14 32.1264 166.769C37.2411 174.367 53.3637 169.973 59.9359 167.783C61.2937 167.33 62.7336 168.366 62.7054 169.797C62.271 191.871 62.5258 195.774 70.4263 212.14Z" fill="white" stroke="#E1306C" stroke-opacity="0.3" stroke-width="5"/>
<path d="M189.947 330.812C192.827 335.448 196.443 339.584 200.653 343.057C202.189 344.353 203.827 345.523 205.551 346.556C211.488 350.576 218.066 353.557 225.003 355.372L229.691 356.422C231.265 356.737 232.91 356.737 234.484 356.912C238.577 357.541 242.671 357.121 246.834 357.856C248.129 357.856 248.024 358.731 246.834 359.57C245.205 360.804 243.269 361.566 241.236 361.775C239.024 361.95 236.801 361.95 234.589 361.775C232.397 361.755 230.21 361.568 228.047 361.215L221.504 359.745C219.405 359.011 217.271 358.206 215.207 357.366C213.143 356.527 210.309 355.022 207.79 353.868C205.271 352.713 202.997 351.104 200.793 349.669C195.897 346.12 191.578 341.836 187.988 336.97L186.309 334.731L184.944 332.317C183.947 330.765 183.07 329.139 182.32 327.454C181.127 324.922 180.167 322.287 179.452 319.582C178.645 316.917 178.06 314.191 177.702 311.43C177.074 307.193 176.898 302.9 177.178 298.625C177.159 297.683 177.265 296.742 177.492 295.826C178.332 292.328 178.927 291.348 180.186 290.929C180.461 290.831 180.742 290.749 181.026 290.684C181.901 290.684 182.32 292.153 182.181 294.567C181.634 301.744 182.177 308.963 183.79 315.978C184.453 318.588 185.331 321.139 186.414 323.605C187.449 326.119 188.714 328.531 190.192 330.812H189.947Z" fill="#231F20"/>
<path d="M211.569 283.757C211.544 284.07 211.406 284.363 211.18 284.582C210.955 284.801 210.658 284.93 210.344 284.946H210.589C210.589 284.946 211.149 282.952 210.589 283.127C207.825 284.037 209.015 288.445 211.814 287.5C213.318 286.975 214.752 285.996 214.787 284.247C214.762 283.592 214.568 282.956 214.225 282.398C213.882 281.841 213.401 281.381 212.828 281.063C212.302 280.62 211.664 280.329 210.985 280.222C210.305 280.115 209.609 280.195 208.972 280.454C208.335 280.713 207.78 281.142 207.369 281.693C206.957 282.244 206.704 282.897 206.636 283.582C206.636 284.806 207.79 285.821 208.91 285.856C209.507 285.838 210.076 285.593 210.498 285.17C210.921 284.748 211.166 284.179 211.184 283.582L211.569 283.757Z" fill="#231F20"/>
<path d="M207.16 311.676C207.115 311.539 207.115 311.392 207.16 311.256C207.159 311.422 207.104 311.584 207.003 311.717C206.902 311.849 206.761 311.945 206.601 311.991C206.601 311.991 206.286 311.991 206.321 311.991C206.356 311.991 206.321 312.62 206.321 312.585C206.148 313.096 205.847 313.554 205.446 313.915C203.312 315.944 206.531 319.163 208.665 317.133C210.799 315.104 212.163 309.332 207.93 307.792C207.219 307.543 206.452 307.501 205.718 307.67C204.984 307.839 204.313 308.212 203.783 308.746C203.252 309.281 202.883 309.954 202.719 310.689C202.556 311.425 202.603 312.191 202.857 312.9C203.907 315.594 208.28 314.44 207.265 311.676H207.16Z" fill="#231F20"/>
<path d="M237.144 257.028C236.24 256.933 235.328 257.089 234.507 257.476C233.685 257.864 232.986 258.469 232.484 259.227C231.983 259.984 231.699 260.865 231.663 261.772C231.627 262.68 231.841 263.58 232.281 264.375C232.549 265.191 233.006 265.933 233.614 266.54C234.221 267.148 234.963 267.605 235.779 267.873C236.734 268.042 237.718 267.911 238.595 267.498C239.473 267.084 240.2 266.409 240.677 265.564C242.042 263.745 239.033 262.066 237.668 263.78C237.463 264.077 237.186 264.317 236.864 264.48H236.654C236.122 264.151 235.724 263.642 235.534 263.045C234.94 261.401 235.534 260.561 237.249 260.666C239.523 260.666 239.488 257.168 237.249 257.168L237.144 257.028Z" fill="#231F20"/>
<path d="M87.6493 373.81L86.7047 382.662V382.942C86.7047 382.942 86.7047 382.942 86.9496 383.117L90.1333 384.796L94.3665 387C95.801 387.735 97.3753 388.225 98.8797 388.854L107.976 392.353L117.352 395.257C120.501 396.236 123.615 397.286 126.868 397.986C133.306 399.455 139.673 401.239 146.215 402.324C150.973 403.163 155.731 404.108 160.525 404.773L174.869 406.697C208.898 410.936 243.221 412.329 277.482 410.86C292.701 410.266 307.954 408.691 322.963 406.627C342.135 403.642 361.179 399.98 380.095 395.641C386.042 394.452 385.623 395.642 381.074 398.58C377.948 400.504 374.725 402.268 371.418 403.863C366.73 406.041 361.829 407.729 356.794 408.901C351.896 410.126 346.963 411.315 341.995 412.19C337.027 413.064 332.094 414.114 327.126 414.884C317.121 416.073 307.15 417.578 297.109 418.382C276.981 420.085 256.767 420.529 236.583 419.712C211.861 419.084 187.192 417.075 162.694 413.694C149.186 411.686 135.791 408.977 122.565 405.577C109.229 402.176 96.3198 397.282 84.0807 390.988L80.2323 389.029L78.0982 387.91C78.048 387.129 78.048 386.346 78.0982 385.566L78.483 381.157L78.7979 378.009C79.1828 373.845 79.7075 369.682 80.2673 365.519C81.4102 357.216 82.7979 348.959 84.4306 340.749C89.3028 315.825 96.942 291.523 107.206 268.294C114.93 250.301 125.36 233.594 138.134 218.754C141.036 215.525 144.119 212.465 147.37 209.588C151.618 205.663 156.429 202.396 161.644 199.896C163.972 198.634 166.556 197.916 169.201 197.797C170.076 197.797 171.125 197.552 171.65 197.587C173.434 197.762 168.151 201.786 159.685 209.063C146.71 220.097 135.656 233.208 126.973 247.862C117.973 263.06 110.619 279.174 105.037 295.932C96.5444 321.203 90.7855 347.312 87.8592 373.81H87.6493Z" fill="#231F20"/>
<path d="M379.361 303.42C376.483 293.333 372.978 283.436 368.865 273.787C367.291 270.289 365.751 266.79 364.002 263.291C358.271 251.09 351.233 239.547 343.011 228.865C341.051 226.626 339.022 224.422 336.993 222.218L333.949 218.964C332.865 217.915 331.71 217.005 330.451 216.026C327.547 213.612 324.783 210.988 321.774 208.679C318.61 206.585 315.615 204.246 312.818 201.682C311.104 200.002 311.943 199.128 314.427 199.058C318.174 199.061 321.832 200.195 324.923 202.311C325.798 202.871 326.672 203.396 327.477 204.026L329.856 205.95L334.544 209.903C336.048 211.303 337.658 212.597 339.092 214.066L343.186 218.58C348.683 224.63 353.591 231.191 357.845 238.172C360.224 242.44 363.022 246.533 365.506 250.871C367.99 255.21 370.439 259.548 372.504 264.026C377.082 273.9 380.998 284.069 384.224 294.464C386.323 300.796 387.932 307.268 389.612 313.706C390.801 318.604 391.781 323.572 392.865 328.505C393.95 333.438 394.719 338.406 395.489 343.339C396.749 351.001 398.148 358.522 398.988 366.219C398.988 367.899 399.408 369.543 399.547 371.257C400.002 377.625 399.198 379.689 397.413 381.053C397.029 381.402 396.606 381.707 396.154 381.963C394.754 382.558 393.425 380.004 392.655 375.525C390.801 362.196 388.597 348.237 385.973 334.312C385.098 329.099 383.804 323.817 382.719 318.814C381.635 313.811 380.585 308.738 379.186 303.49L379.361 303.42Z" fill="#231F20"/>
<path d="M166.962 157.179C167.207 158.718 167.696 160.258 168.046 161.832C168.396 163.406 169.026 164.841 169.551 166.38C170.075 167.92 170.635 168.444 171.055 169.529C172.685 173.296 174.815 176.826 177.387 180.025C178.589 181.383 179.979 182.561 181.516 183.523C183.37 184.888 185.434 185.657 187.288 187.022C187.848 187.477 187.288 188.771 186.379 189.891C185.817 190.524 185.094 190.992 184.287 191.245C183.479 191.497 182.618 191.525 181.796 191.325C180.42 190.941 179.084 190.426 177.807 189.786C176.541 188.998 175.368 188.071 174.309 187.022C172.283 185.043 170.573 182.766 169.236 180.269C167.661 177.331 165.737 174.707 164.163 171.663C163.352 170.025 162.662 168.329 162.099 166.59C161.597 164.828 161.189 163.042 160.874 161.237C160.279 159.103 160 156.864 159.615 154.695C159.203 151.364 159.016 148.01 159.055 144.654C159.055 143.36 159.055 142.065 159.055 140.771C159.055 139.476 159.055 138.147 159.335 136.852C159.371 136.282 159.477 135.718 159.65 135.173C160.349 133.109 161.224 132.654 162.414 132.584H163.253C164.128 132.584 164.688 133.739 165.038 135.243C165.212 137.412 165.457 139.511 165.492 141.575C165.527 143.639 165.842 145.704 166.017 147.803C166.178 150.934 166.6 154.047 167.277 157.109L166.962 157.179Z" fill="#231F20"/>
<path d="M300.817 152.805C300.254 155.607 299.459 158.357 298.438 161.027C298.172 162.046 297.821 163.04 297.389 164C295.757 167.359 293.515 170.384 290.777 172.922C289.622 174.111 288.362 175.196 287.278 176.42C286.477 177.111 285.636 177.754 284.759 178.345C283.78 178.768 282.741 179.039 281.68 179.149C280.981 179.149 280.631 177.995 280.526 176.525C280.421 175.056 280.526 173.377 281.155 172.747C283.731 170.787 286.184 168.673 288.502 166.415C289.863 164.764 290.885 162.862 291.511 160.817C292.421 158.547 293.147 156.207 293.68 153.82C294.044 152.312 294.302 150.78 294.45 149.237C294.673 146.909 294.673 144.566 294.45 142.239C294.15 140.444 293.741 138.668 293.226 136.922C293.1 136.545 293.006 136.159 292.946 135.767C292.701 134.298 293.4 133.703 294.695 133.108L295.57 132.723C296.12 132.581 296.701 132.613 297.233 132.813C297.766 133.013 298.223 133.373 298.543 133.843C300.655 136.925 301.8 140.567 301.832 144.304C301.841 147.152 301.607 149.996 301.132 152.805H300.817Z" fill="#231F20"/>
<path d="M328.561 165.995C327.675 168.704 326.624 171.357 325.412 173.937C325.019 174.927 324.575 175.896 324.083 176.841C322.192 180.122 319.741 183.047 316.841 185.482C316.246 186.042 315.476 186.462 314.846 186.986C314.201 187.507 313.523 187.986 312.817 188.421C311.873 188.946 311.033 189.575 310.053 190.03C309.067 190.426 308.031 190.685 306.975 190.8C306.31 190.8 306.065 189.715 306.17 188.421C306.275 187.126 306.59 185.657 307.429 185.167C308.859 184.273 310.216 183.266 311.488 182.158C312.152 181.669 312.817 181.179 313.482 180.619C314.197 180.108 314.876 179.547 315.511 178.94C316.356 178.224 317.047 177.343 317.54 176.351C318.097 175.365 318.6 174.349 319.045 173.307C320.185 171.055 321.145 168.715 321.913 166.31C322.403 164.771 322.893 163.231 323.243 161.622C323.865 159.215 324.344 156.773 324.677 154.31C324.922 152.386 324.677 150.426 324.677 148.467C324.677 148.047 324.677 147.593 324.677 147.173C325.027 145.563 325.552 145.144 327.196 145.144H328.246C328.818 145.199 329.358 145.436 329.786 145.82C330.214 146.204 330.508 146.715 330.625 147.278C331.446 150.811 331.446 154.485 330.625 158.018C330.153 160.718 329.546 163.392 328.806 166.03L328.561 165.995Z" fill="#231F20"/>
<path d="M104.582 129.19C102.658 130.555 100.629 131.779 98.8446 133.249L96.1157 135.348L93.6667 137.552C92.897 138.287 92.5122 138.847 91.8824 139.546L90.2031 142.45C89.1393 144.416 88.2044 146.45 87.4043 148.538C84.0094 157.215 82.357 166.476 82.5412 175.791C82.6121 182.516 83.6972 189.192 85.7599 195.593C86.6031 198.283 87.7783 200.857 89.2585 203.255L90.3431 204.76C90.6151 205.127 90.9461 205.446 91.3227 205.704C92.2266 206.329 93.2331 206.791 94.2964 207.069C99.9079 208.201 105.699 208.094 111.265 206.754C123.151 204.416 134.307 199.27 143.801 191.745C146.207 189.738 148.41 187.5 150.379 185.063C151.34 183.955 152.228 182.787 153.037 181.564L153.877 179.29L154.787 177.471C154.979 176.94 154.979 176.358 154.787 175.826C154.512 174.963 154.149 174.131 153.702 173.342C152.658 171.504 151.489 169.739 150.204 168.06C148.734 166.24 147.16 164.561 145.516 162.777L142.997 160.258L139.883 157.284C139.181 156.751 138.577 156.1 138.099 155.36C137.894 155.056 137.707 154.741 137.539 154.415C137.451 154.024 137.451 153.617 137.539 153.226C137.918 151.523 138.724 149.946 139.883 148.643C140.444 147.916 141.052 147.226 141.702 146.578C142.157 146.089 142.612 145.669 143.101 145.214C143.591 144.759 145.026 143.535 146.04 142.765C150.192 139.335 155.502 137.631 160.874 138.007C163.463 138.392 164.373 139.301 164.163 139.791C163.953 140.281 162.624 140.701 160.874 141.54C156.076 144.263 151.799 147.817 148.244 152.036L147.895 152.386L149.294 153.68L151.883 156.409C153.597 158.264 155.381 160.153 156.851 162.182C158.535 164.295 160.044 166.542 161.364 168.899C162.17 170.348 162.804 171.886 163.253 173.482C163.506 174.631 163.623 175.805 163.603 176.981C163.458 178.163 163.224 179.332 162.903 180.48L161.924 182.404C161.674 182.951 161.382 183.477 161.049 183.978C160.473 184.991 159.842 185.972 159.16 186.917C157.847 188.825 156.384 190.627 154.787 192.305C151.705 195.581 148.267 198.503 144.536 201.016C137.243 205.932 129.212 209.653 120.746 212.037C116.26 213.351 111.673 214.288 107.031 214.836C102.071 215.57 97.0182 215.381 92.1273 214.276C89.1838 213.601 86.5129 212.052 84.4655 209.833C82.8371 207.861 81.4729 205.685 80.4071 203.36C78.3755 198.979 76.9513 194.342 76.1738 189.576C75.2497 184.498 74.8279 179.342 74.9144 174.182C74.9248 169.038 75.4286 163.906 76.4187 158.858C77.3904 153.774 78.9156 148.812 80.9669 144.059L82.5762 140.561C83.206 139.406 83.8707 138.287 84.5004 137.062L85.48 135.383L86.8795 133.669C87.7578 132.604 88.7296 131.621 89.7833 130.73C94.4875 126.65 99.5453 122.997 104.897 119.814C107.533 118.182 110.192 116.642 112.874 115.196C115.568 113.657 118.297 112.257 121.061 110.928C137.689 102.697 155.092 96.1344 173.014 91.336C186.669 87.4582 200.565 84.4896 214.612 82.4496L223.849 81.33C227.971 80.7949 232.146 80.7949 236.268 81.33C238.242 81.4786 240.145 82.1289 241.796 83.2193C242.394 83.5557 242.947 83.9672 243.441 84.4438C244.56 85.7732 239.942 87.2076 231.58 88.2572C228.502 88.4321 225.388 88.9219 222.309 89.3418L212.968 90.5663C206.775 91.7908 200.443 92.5605 194.181 94.0648C181.499 96.6733 169.005 100.121 156.781 104.386C138.533 110.568 121.11 118.957 104.897 129.365L104.582 129.19Z" fill="#231F20"/>
<path d="M387.442 128.735C391.425 131.843 395.211 135.196 398.777 138.776L401.436 141.715C402.359 142.905 403.2 144.155 403.955 145.459C405.074 147.803 406.299 150.077 407.173 152.456C410.965 161.968 412.866 172.129 412.771 182.368C412.895 189.941 411.626 197.471 409.028 204.584C407.773 207.887 406.001 210.969 403.78 213.716C403.172 214.478 402.505 215.192 401.786 215.85C400.965 216.599 400.047 217.235 399.057 217.739C397.32 218.6 395.471 219.213 393.564 219.558C386.894 220.492 380.105 220.099 373.587 218.404C361.003 215.468 349.268 209.661 339.301 201.436C334.773 197.672 330.947 193.135 328.001 188.036C327.239 186.709 326.573 185.329 326.007 183.908C325.674 183.472 325.436 182.971 325.307 182.438C325.183 181.934 325.113 181.418 325.097 180.899C325.166 179.886 325.366 178.887 325.692 177.925C326.873 175.072 328.503 172.427 330.52 170.088C332.298 167.881 334.19 165.768 336.187 163.756C337.167 162.776 338.182 161.797 339.231 160.852L341.505 158.788C341.785 158.473 342.205 158.263 342.415 157.948C342.236 157.546 341.988 157.179 341.68 156.864L340.701 155.849C340.001 155.15 339.266 154.485 338.531 153.82C335.609 151.245 332.334 149.101 328.805 147.453C327.056 146.718 326.252 146.298 326.321 145.703C326.391 145.109 327.476 144.374 329.61 144.024C332.544 143.563 335.547 143.877 338.322 144.934C340.141 145.606 341.888 146.462 343.534 147.488C344.43 148.059 345.294 148.678 346.123 149.342C346.698 149.775 347.237 150.255 347.733 150.776C348.465 151.456 349.155 152.18 349.797 152.946C351.326 154.461 352.268 156.469 352.456 158.613C352.512 159.078 352.512 159.548 352.456 160.013C352.367 160.436 352.201 160.839 351.966 161.202C351.736 161.645 351.466 162.066 351.161 162.462L349.762 163.616L346.578 166.415L344.899 168.024C343.744 169.074 342.625 170.123 341.4 171.243C339.28 173.313 337.326 175.547 335.558 177.925C334.879 178.819 334.315 179.795 333.878 180.829L334.088 181.354C335.18 183.93 336.603 186.353 338.322 188.561C346.338 197.85 356.706 204.811 368.339 208.713C372.219 210.116 376.226 211.135 380.304 211.756C384.23 212.421 388.239 212.421 392.165 211.756C393.719 211.507 395.193 210.896 396.468 209.972C397.068 209.392 397.629 208.773 398.147 208.118L399.721 205.739C401.649 202.188 403.029 198.367 403.815 194.404C404.739 189.902 405.208 185.319 405.214 180.724C405.135 176.025 404.644 171.343 403.745 166.73C402.777 162.189 401.383 157.749 399.582 153.47C399.162 152.421 398.602 151.406 398.112 150.357C397.679 149.346 397.139 148.384 396.503 147.488L395.628 146.263L394.474 145.004C393.738 144.134 392.956 143.304 392.13 142.52C383.488 134.543 374.024 127.507 363.896 121.528C348.56 112.284 332.236 104.785 315.231 99.1725C302.232 94.8766 288.871 91.7619 275.312 89.8663L266.426 88.7817C255.3 87.5572 251.802 86.5426 249.528 84.4435C248.975 84.0094 248.46 83.5295 247.988 83.0091C246.974 81.5397 251.697 80.665 260.198 80.665C263.358 80.7372 266.512 80.9825 269.645 81.3997L279.196 82.4843L288.712 84.2336C291.931 84.7934 295.114 85.4581 298.298 86.3327L307.849 88.7817L317.295 91.7905C320.479 92.7701 323.593 93.9596 326.671 95.2891C329.75 96.6185 332.934 97.4582 335.803 98.8226C354.159 106.565 371.491 116.541 387.407 128.525L387.442 128.735Z" fill="#231F20"/>
<path d="M195.58 170.683C192.241 165.675 189.947 160.045 188.835 154.13C187.723 148.215 187.815 142.136 189.107 136.258C189.352 135.173 189.597 134.158 189.947 133.074L190.752 130.555L190.927 129.96C190.927 129.75 191.277 129.68 191.416 129.54L192.466 128.806L195.545 126.601C196.454 126.007 197.434 125.587 198.379 125.062C204.942 121.937 211.879 119.667 219.02 118.31C225.939 116.89 232.957 116.001 240.012 115.651C246.303 115.266 252.612 115.266 258.904 115.651C260.933 115.861 262.962 115.896 264.991 116.211C267.029 116.526 269.049 116.947 271.044 117.47C273.08 118.017 275.059 118.755 276.957 119.674L279.79 121.144C280.667 121.822 281.496 122.559 282.274 123.348C284.199 125.272 282.974 125.902 280.315 126.252C278.763 126.495 277.197 126.647 275.627 126.706C273.759 126.729 271.895 126.553 270.064 126.182C255.124 123.34 239.817 122.974 224.758 125.097C220.079 125.729 215.474 126.818 211.008 128.351C206.604 129.763 202.396 131.726 198.484 134.193L197.574 134.753C197.364 134.753 197.399 135.138 197.294 135.313C196.882 136.451 196.566 137.621 196.349 138.811C195.813 141.223 195.555 143.688 195.58 146.158C195.585 151.171 196.633 156.127 198.659 160.713C199.73 163.183 201.067 165.529 202.647 167.71C203.43 168.791 204.283 169.819 205.201 170.788L206.6 172.223L207.86 173.307C208.035 173.465 208.239 173.586 208.462 173.664C208.684 173.742 208.919 173.776 209.154 173.762C210.199 173.722 211.24 173.605 212.268 173.412L215.767 172.678L223.218 171.068C228.247 170.012 233.326 169.218 238.437 168.689C246.408 167.722 254.474 167.875 262.402 169.144C264.161 169.413 265.902 169.787 267.615 170.264C268.969 170.657 270.301 171.124 271.604 171.663C272.482 172.103 273.315 172.631 274.088 173.237C275.117 174 275.818 175.126 276.047 176.386C276.174 176.879 276.256 177.383 276.292 177.891C276.292 179.43 273.353 179.325 269.015 178.45C255.923 175.178 242.255 174.95 229.061 177.786C225.563 178.45 222.064 179.255 218.39 180.06C216.536 180.479 214.682 180.899 212.583 181.249C212.058 181.249 211.533 181.249 210.904 181.459C210.158 181.512 209.41 181.512 208.664 181.459C207.753 181.425 206.849 181.284 205.971 181.039C205.54 180.922 205.128 180.746 204.746 180.514C204.327 180.335 203.929 180.112 203.557 179.85L201.982 178.555C201.632 178.24 201.212 177.926 200.863 177.576L198.798 175.477C197.544 174.018 196.376 172.488 195.3 170.893L195.58 170.683Z" fill="#231F20"/>
<path d="M199.813 262.485C193.673 269.181 189.325 277.32 187.172 286.146C185.019 294.972 185.131 304.199 187.498 312.97C189.348 319.42 192.231 325.529 196.034 331.057C202.612 340.956 212.17 348.504 223.323 352.609C234.077 356.329 245.667 356.917 256.743 354.303C267.818 351.689 277.922 345.981 285.878 337.845C295.182 327.935 300.993 315.257 302.426 301.739C302.951 297.576 304.84 298.031 306.449 301.949C308.688 308.508 308.413 315.663 305.68 322.031C299.678 336.773 288.474 348.799 274.193 355.827C260.187 363.049 244.088 365.117 228.711 361.67C219.461 359.556 210.785 355.446 203.291 349.626C195.797 343.806 189.666 336.418 185.329 327.979C180.58 318.683 178.189 308.363 178.367 297.926C178.483 286.353 181.904 275.055 188.226 265.361C194.548 255.667 203.509 247.981 214.052 243.208C222.664 239.176 232.007 236.941 241.511 236.64C251.015 236.34 260.48 237.979 269.329 241.459C276.139 244.167 282.452 247.985 288.012 252.759C293.526 257.606 298.176 263.356 301.761 269.762C303.359 272.585 304.694 275.548 305.75 278.614C307.236 282.661 308.017 286.933 308.059 291.244C308.08 292.614 307.818 293.975 307.288 295.239C306.758 296.504 305.972 297.645 304.98 298.591C303.301 299.64 302.636 295.092 300.817 287.325C297.873 275.629 291.307 265.162 282.058 257.421C272.809 249.68 261.35 245.06 249.318 244.223C240.215 243.471 231.056 244.663 222.449 247.721C213.866 250.767 206.147 255.844 199.953 262.52L199.813 262.485Z" fill="#231F20"/>
<path d="M239.872 263.85C239.857 264.607 239.576 265.333 239.078 265.903C238.581 266.472 237.899 266.848 237.152 266.965C236.404 267.082 235.64 266.932 234.992 266.542C234.345 266.151 233.855 265.545 233.61 264.83C232 260.457 239.382 258.778 239.872 263.85C240.187 266.964 245.085 266.999 244.77 263.85C244.743 262.745 244.498 261.655 244.048 260.644C243.599 259.634 242.954 258.722 242.151 257.961C241.348 257.2 240.402 256.606 239.369 256.212C238.335 255.817 237.234 255.631 236.129 255.664C234.995 255.764 233.894 256.097 232.895 256.643C231.897 257.189 231.022 257.936 230.325 258.836C229.629 259.736 229.126 260.77 228.848 261.874C228.57 262.978 228.524 264.127 228.712 265.25C229.109 267.08 230.106 268.724 231.545 269.923C232.984 271.121 234.782 271.803 236.653 271.862C237.729 271.921 238.805 271.755 239.813 271.376C240.822 270.996 241.74 270.411 242.51 269.658C243.28 268.904 243.885 267.999 244.286 266.999C244.687 265.999 244.876 264.927 244.84 263.85C244.84 263.192 244.578 262.56 244.113 262.094C243.647 261.628 243.015 261.366 242.356 261.366C241.697 261.366 241.065 261.628 240.6 262.094C240.134 262.56 239.872 263.192 239.872 263.85Z" fill="#231F20"/>
<path d="M214.822 282.008C214.785 282.756 214.492 283.469 213.991 284.025C213.49 284.582 212.812 284.949 212.072 285.064C211.333 285.179 210.576 285.035 209.929 284.657C209.283 284.279 208.787 283.689 208.525 282.988C206.95 278.615 214.332 276.935 214.822 282.008C215.102 285.122 220 285.157 219.72 282.008C219.702 280.894 219.462 279.794 219.015 278.772C218.567 277.751 217.921 276.83 217.113 276.061C216.305 275.292 215.353 274.692 214.311 274.296C213.269 273.899 212.158 273.714 211.044 273.752C209.911 273.847 208.811 274.177 207.813 274.719C206.814 275.261 205.939 276.004 205.242 276.902C204.545 277.799 204.041 278.831 203.763 279.933C203.486 281.035 203.439 282.182 203.627 283.303C204.028 285.134 205.025 286.779 206.463 287.982C207.9 289.185 209.696 289.877 211.568 289.95C212.64 289.989 213.709 289.808 214.708 289.418C215.708 289.029 216.617 288.439 217.38 287.686C218.144 286.932 218.745 286.03 219.147 285.036C219.55 284.042 219.745 282.976 219.72 281.903C219.706 281.254 219.435 280.637 218.966 280.187C218.497 279.738 217.868 279.493 217.219 279.507C216.569 279.521 215.952 279.792 215.502 280.261C215.053 280.73 214.808 281.359 214.822 282.008Z" fill="#231F20"/>
<path d="M211.254 311.921C211.238 312.677 210.957 313.403 210.46 313.973C209.962 314.543 209.28 314.919 208.533 315.036C207.786 315.153 207.022 315.003 206.374 314.612C205.726 314.222 205.237 313.616 204.991 312.9C203.382 308.527 210.764 306.848 211.254 311.921C211.534 315.035 216.467 315.035 216.152 311.921C216.12 310.813 215.87 309.723 215.417 308.712C214.964 307.701 214.316 306.79 213.51 306.029C212.704 305.269 211.757 304.675 210.721 304.281C209.686 303.887 208.583 303.701 207.475 303.734C206.342 303.834 205.241 304.168 204.242 304.714C203.243 305.26 202.368 306.006 201.672 306.906C200.975 307.806 200.472 308.841 200.195 309.945C199.917 311.048 199.871 312.198 200.058 313.32C200.462 315.153 201.466 316.798 202.911 317.996C204.356 319.194 206.159 319.875 208.035 319.932C209.102 319.971 210.166 319.791 211.162 319.403C212.157 319.015 213.062 318.428 213.822 317.678C214.582 316.928 215.181 316.03 215.582 315.04C215.982 314.05 216.176 312.989 216.152 311.921C216.152 311.271 215.894 310.648 215.434 310.189C214.975 309.73 214.352 309.472 213.703 309.472C213.053 309.472 212.43 309.73 211.971 310.189C211.512 310.648 211.254 311.271 211.254 311.921Z" fill="#231F20"/>
<path d="M243.441 306.568C247.344 306.568 250.508 303.404 250.508 299.501C250.508 295.598 247.344 292.434 243.441 292.434C239.538 292.434 236.374 295.598 236.374 299.501C236.374 303.404 239.538 306.568 243.441 306.568Z" fill="#231F20"/>
<path d="M81.282 361.81C79.8476 362.089 44.2321 376.434 49.9698 386.964C59.6958 404.877 167.207 420.201 170.635 411.769L81.282 388.679V361.81Z" fill="#231F20"/>
<path d="M166.052 409.846C173.819 410.475 181.551 411.035 189.318 411.49L197.854 411.77C207.814 412.283 217.808 412.738 227.837 413.134C232.28 413.134 236.758 413.134 241.167 413.134C246.852 412.867 252.549 413.054 258.205 413.694C259.954 413.974 259.744 414.743 258.205 415.758C255.99 417.295 253.405 418.213 250.718 418.417C244.897 418.845 239.059 418.973 233.225 418.802C227.417 418.802 221.575 418.522 215.732 417.997C208.735 417.402 201.458 417.472 194.321 417.123C186.449 416.773 178.577 416.248 170.705 415.653L156.221 414.464C148.909 413.834 141.527 412.924 134.285 411.805C128.688 410.93 123.16 410.23 117.632 409.496L114.133 408.971C112.517 408.804 110.936 408.391 109.445 407.746C108.649 407.413 107.968 406.854 107.486 406.137C107.486 405.857 107.031 405.612 106.926 405.402C106.821 405.192 108.536 403.898 112.034 403.793C122.25 404.003 132.501 406.382 142.787 407.536C150.379 408.446 158.285 409.076 166.052 409.636V409.846Z" fill="#231F20"/>
<path d="M195.86 292.083C194.131 301.025 195.143 310.281 198.764 318.637C200.204 321.625 201.938 324.461 203.942 327.104C211.054 336.695 221.547 343.224 233.295 345.366C238.515 346.236 243.851 346.141 249.038 345.087C255.623 343.696 261.966 341.338 267.86 338.089C269.715 337.11 270.274 338.299 269.365 340.364C267.791 343.409 265.169 345.782 261.983 347.046C254.946 350.004 247.362 351.434 239.732 351.244C232.073 351.007 224.579 348.957 217.866 345.262C209.689 340.893 202.718 334.571 197.574 326.859C194.855 322.535 192.825 317.813 191.557 312.865C188.982 301.86 189.962 290.322 194.355 279.908C197.974 271.261 203.951 263.805 211.603 258.392C217.349 254.194 223.9 251.229 230.846 249.681L235.534 249.051C237.615 248.742 239.735 248.801 241.796 249.226C242.829 249.385 243.771 249.906 244.455 250.695C244.722 250.984 244.956 251.301 245.155 251.64C245.575 252.689 243.231 253.459 239.277 253.599C233.357 254.032 227.552 255.451 222.099 257.797C216.606 260.307 211.661 263.874 207.545 268.293C201.462 274.947 197.408 283.202 195.86 292.083Z" fill="#231F20"/>
<path d="M348.782 196.993C351.912 199.369 355.184 201.554 358.578 203.535C359.837 204.235 361.132 204.759 362.426 205.424C366.913 207.69 371.597 209.541 376.421 210.952C378.597 211.552 380.821 211.961 383.068 212.176C385.937 212.491 388.771 212.876 391.674 213.401C392.584 213.611 392.479 214.206 391.674 214.905C390.545 215.893 389.142 216.516 387.651 216.69C384.528 217.012 381.373 216.823 378.31 216.13C375.213 215.576 372.186 214.684 369.284 213.471C365.785 212.002 362.286 210.777 358.788 209.063C355.158 207.112 351.653 204.939 348.292 202.555C346.178 201.08 344.146 199.492 342.205 197.797C339.196 195.242 336.537 192.302 334.298 189.051C332.408 186.577 330.985 183.779 330.1 180.794C329.863 180.15 329.698 179.481 329.61 178.8C329.155 176.211 329.61 175.301 330.694 174.847C330.925 174.702 331.171 174.584 331.429 174.497C332.199 174.287 332.968 175.232 333.423 176.771C334.962 181.31 337.335 185.523 340.42 189.191C342.947 192.02 345.774 194.566 348.852 196.783L348.782 196.993Z" fill="#231F20"/>
<path d="M132.046 197.971C135.067 196.3 137.967 194.418 140.723 192.339C141.772 191.604 142.612 190.694 143.592 189.89C147.048 187.181 150.12 184.015 152.723 180.478C153.305 179.727 153.765 178.889 154.087 177.995C154.294 177.589 154.47 177.168 154.612 176.735C154.67 176.411 154.67 176.079 154.612 175.755C154.203 173.456 153.594 171.197 152.793 169.003C152.583 168.199 153.423 167.884 154.577 168.059C155.298 168.178 155.984 168.452 156.588 168.863C157.192 169.274 157.7 169.811 158.076 170.438C158.919 171.884 159.444 173.495 159.615 175.161C159.714 176.235 159.595 177.318 159.265 178.344C158.95 179.219 158.636 179.779 158.321 180.513C157.014 183.11 155.288 185.474 153.213 187.511C150.834 189.925 148.56 192.514 145.971 194.718C143.118 197.112 140.089 199.287 136.909 201.225C134.985 202.45 132.991 203.499 130.997 204.724C127.953 206.298 124.804 207.767 121.656 209.062L118.157 210.706C116.946 211.294 115.695 211.797 114.414 212.211C113.819 212.211 113.294 212.595 112.699 212.735C110.46 213.12 109.691 212.735 109.201 211.441C109.201 211.126 108.921 210.811 108.816 210.496C108.536 209.447 109.271 208.397 110.6 207.802C114.554 205.843 118.752 204.479 122.915 202.519C126.069 201.12 129.141 199.543 132.116 197.796L132.046 197.971Z" fill="#231F20"/>
<path d="M45.0716 149.552C44.8617 150.112 44.3719 149.307 43.6022 147.733C43.2878 146.969 43.0647 146.17 42.9375 145.354C42.9893 144.888 43.095 144.43 43.2524 143.989C44.1533 143.242 45.126 142.586 46.1562 142.03C46.8173 141.636 47.5588 141.397 48.3253 141.33L52.5936 140.806C52.9027 140.721 53.229 140.721 53.5382 140.806C54.5139 141.136 55.5713 141.136 56.5469 140.806C56.5469 140.806 56.8618 140.806 56.9668 140.526C57.8769 140.025 58.9021 139.772 59.9406 139.791C60.7802 140.071 61.6199 140.211 62.5295 140.456C62.5295 140.456 62.5295 140.456 62.9143 140.456C63.2992 140.456 63.5791 140.841 63.859 140.806C64.243 140.77 64.6294 140.77 65.0135 140.806C65.302 140.918 65.5729 141.071 65.8182 141.26C66.135 141.557 66.3442 141.951 66.4129 142.38C66.4129 142.695 66.7278 143.01 66.9377 143.36V143.709C66.559 144.821 65.9778 145.853 65.2234 146.753L63.4391 147.908C62.5295 148.398 61.5149 148.817 61.34 148.922C61.1651 149.027 60.8852 148.922 60.6403 148.922C60.3954 148.922 57.7365 150.042 57.5965 150.007C57.4566 149.972 56.442 150.357 55.8122 149.797C55.8122 149.797 55.6023 149.797 55.4624 149.797C54.5112 149.937 53.5447 149.937 52.5936 149.797C52.1395 149.761 51.6832 149.761 51.2291 149.797C51.2291 149.797 51.0542 149.797 50.9492 149.797H50.6344C49.5787 149.815 48.5308 149.98 47.5206 150.287C47.3107 150.287 46.0862 149.832 45.8413 150.007C45.5964 150.182 45.1416 149.342 45.0716 149.552Z" fill="#231F20"/>
<path d="M63.7546 100.187C63.2298 100.012 63.7546 99.3477 64.6642 98.3331C65.1713 97.9051 65.7522 97.5731 66.3785 97.3535C66.7913 97.3724 67.2014 97.431 67.603 97.5284C68.5564 98.3442 69.4563 99.2207 70.2969 100.152C70.8985 100.767 71.395 101.476 71.7663 102.252C72.536 103.791 73.3406 105.33 74.0404 106.905C74.1865 107.263 74.2807 107.64 74.3202 108.024C74.4558 109.331 74.8356 110.601 75.4398 111.768C75.4398 111.943 75.4398 112.187 75.8596 112.292C76.6509 113.521 77.2083 114.885 77.5039 116.316C77.5039 117.505 77.5039 118.625 77.5039 119.814C77.5039 119.989 77.5039 120.129 77.5039 120.339C77.3596 120.49 77.2603 120.678 77.217 120.881C77.1737 121.085 77.1883 121.297 77.259 121.494C77.3106 121.982 77.3106 122.475 77.259 122.963C77.1641 123.281 77.0097 123.578 76.8042 123.838C76.8042 124.118 75.8596 124.223 75.7547 124.188C75.6497 124.153 75.1249 124.188 74.81 124.432H74.4602C73.4985 123.754 72.6076 122.981 71.8013 122.123C71.8013 122.123 70.017 118.625 69.7721 118.17C69.6997 117.942 69.6997 117.698 69.7721 117.47C69.7721 117.47 68.2677 114.636 68.2327 114.531C68.2327 113.902 67.638 113.412 67.9179 112.607C67.9552 112.494 67.9552 112.371 67.9179 112.257C67.491 111.251 67.1515 110.209 66.9033 109.144C66.7179 108.616 66.4957 108.101 66.2385 107.604C66.2385 107.604 66.2385 107.394 66.2385 107.289C66.2577 107.162 66.2577 107.032 66.2385 106.905C65.7616 105.688 65.1762 104.517 64.4893 103.406C64.4893 103.161 64.1744 101.622 63.9295 101.342C63.6846 101.062 63.9995 100.257 63.7546 100.187Z" fill="#231F20"/>
<path d="M416.27 109.808C416.27 110.367 415.57 110.018 414.206 109.108C413.573 108.654 412.998 108.125 412.492 107.534C412.292 107.148 412.117 106.751 411.967 106.344C411.967 106.344 412.492 104.35 412.632 103.72C412.79 103.139 413.077 102.601 413.471 102.146L415.675 99.312C415.862 99.0911 416.103 98.9224 416.375 98.8222C417.272 98.4395 418.021 97.7767 418.509 96.933C418.509 96.933 418.719 96.6881 418.509 96.4082C418.299 96.1283 420.118 93.9942 420.503 93.8542C420.888 93.7143 422.288 93.1895 423.267 92.9096C423.267 92.9096 423.267 92.9096 423.722 92.9096C423.862 93.0326 424.043 93.1004 424.229 93.1004C424.416 93.1004 424.596 93.0326 424.737 92.9096C425.107 92.7229 425.512 92.6156 425.926 92.5947C426.225 92.6268 426.519 92.6973 426.801 92.8046C427.096 93.0408 427.335 93.3396 427.5 93.6793C427.5 93.9942 427.885 94.2041 428.095 94.449L428.305 94.7289C428.394 95.6948 428.394 96.6668 428.305 97.6327C428.305 97.6327 427.955 98.2624 427.64 98.9621C427.326 99.6618 426.906 100.222 426.836 100.397C426.766 100.571 426.556 100.571 426.381 100.641C426.206 100.711 425.331 102.671 425.261 102.741C425.191 102.811 424.807 103.58 424.072 103.545C424.017 103.543 423.964 103.559 423.919 103.591C423.875 103.622 423.843 103.668 423.827 103.72C423.346 104.376 422.768 104.954 422.113 105.434C421.815 105.736 421.546 106.064 421.308 106.414C421.308 106.414 421.308 106.414 421.063 106.414C420.971 106.395 420.876 106.395 420.783 106.414C420.223 107.254 419.349 107.814 418.894 108.793C418.894 109.003 417.53 109.388 417.425 109.668C417.32 109.948 416.27 109.598 416.27 109.808Z" fill="#231F20"/>
<path d="M425.576 142.24C425.576 142.799 424.807 142.24 423.547 141.4C422.958 140.925 422.45 140.358 422.043 139.721C421.995 139.29 421.995 138.856 422.043 138.426C422.61 137.321 423.29 136.278 424.072 135.312C424.602 134.645 425.255 134.087 425.996 133.668C427.431 132.828 428.865 131.989 430.334 131.289C430.657 131.117 431.019 131.033 431.384 131.044C432.608 130.952 433.799 130.607 434.883 130.03C434.883 130.03 435.267 130.03 435.337 129.61C435.407 129.19 438.521 128.07 438.836 128.21C439.955 128.385 441.005 128.42 442.09 128.49C442.09 128.49 442.335 128.49 442.544 128.49C442.676 128.641 442.849 128.75 443.041 128.806C443.233 128.862 443.437 128.861 443.629 128.805H444.993C445.279 128.924 445.549 129.076 445.798 129.26C446.043 129.26 446.183 130.134 446.148 130.239C446.113 130.344 446.148 130.799 446.428 131.079C446.443 131.184 446.443 131.29 446.428 131.394C445.856 132.395 445.213 133.354 444.504 134.263L442.824 135.242C442.02 135.732 441.145 136.257 441.005 136.397C440.865 136.537 440.585 136.397 440.375 136.397L437.786 137.901C437.227 137.901 436.807 138.461 436.072 138.111C436.072 138.111 435.827 138.111 435.722 138.111C434.861 138.507 433.957 138.8 433.028 138.986C432.539 138.986 432.189 139.441 431.734 139.616H431.454C431.34 139.583 431.218 139.583 431.104 139.616C430.194 140.21 429.04 140.455 428.305 141.33C428.305 141.33 426.766 141.61 426.591 141.89C426.416 142.17 425.541 141.995 425.576 142.24Z" fill="#231F20"/>
</svg>
