<svg width="500" height="500" viewBox="0 0 500 500" fill="none" xmlns="http://www.w3.org/2000/svg">
<g clip-path="url(#clip0_117_833)">
<path d="M41.6101 412.332C32.6092 382.93 63.9501 372.636 71.3032 370.652C72.1961 370.411 72.8289 369.666 72.8511 368.742C73.1836 354.929 75.5403 251.054 72.8135 189.161C71.513 159.645 104.33 156.602 99.9465 148.46C87.8313 125.961 67.375 110.821 61.5288 106.797C60.6379 106.184 60.3329 105.039 60.8995 104.118C68.2018 92.2437 114.627 19.7154 135.22 60.2775C154.304 97.869 179.306 93.0563 186.263 90.8199C187.318 90.4809 187.764 89.3209 187.361 88.2891C184.371 80.6404 174.815 50.6195 198.305 27.7165C225.438 1.26144 243.753 -12.3054 267.495 14.828C286.638 36.7055 284.172 72.2539 282.498 85.2049C282.267 86.9946 284.341 88.3338 285.843 87.3339C298.856 78.6717 339.877 52.8149 365.853 52.8149C397.057 52.8149 412.659 77.2349 412.659 105.725C412.659 134.216 364.497 143.033 380.099 160.67C391.995 174.118 385.75 201.763 382.112 214.137C381.555 216.032 384.217 218.353 386.133 217.875C393.426 216.054 407.058 216.011 425.547 230.538C454.037 252.923 475.065 290.232 447.932 320.078C420.799 349.925 415.372 338.394 392.987 348.569C372.855 357.72 388.936 428.873 392.376 443.1C392.683 444.371 391.713 445.571 390.406 445.571H87.0585C87.0585 445.571 51.7851 445.571 41.6101 412.332Z" fill="white" stroke="#E1306C" stroke-opacity="0.3" stroke-width="5"/>
<path d="M173.843 249.056C180.369 254.383 185.289 261.417 188.056 269.374C189.116 272.225 189.831 275.193 190.186 278.214C190.494 280.884 190.547 283.578 190.345 286.258L189.646 290.233C189.423 291.568 188.946 292.808 188.596 294.112C186.8 299.102 183.997 303.669 180.361 307.53C177.139 310.948 173.38 313.816 169.232 316.02C163.993 318.945 158.124 320.56 152.125 320.726C150.281 320.726 150.536 320.249 152.125 319.613C154.478 318.639 156.889 317.811 159.343 317.133C164.907 315.7 170.088 313.064 174.522 309.41C178.955 305.757 182.533 301.175 185.003 295.988C186.37 292.77 187.228 289.358 187.547 285.877C187.733 282.326 187.455 278.767 186.72 275.288C185.071 267.579 181.28 260.493 175.782 254.843C172.43 251.326 168.465 248.449 164.081 246.353C160.741 244.826 157.176 243.849 153.524 243.46C152.602 243.46 151.68 243.237 150.79 243.237H148.024C146.175 243.292 144.335 243.505 142.523 243.873C136.914 244.831 131.526 246.802 126.624 249.692L123.445 251.663C121.505 252.935 120.265 253.825 119.279 254.366C118.583 254.725 117.83 254.962 117.053 255.065C116.789 255.093 116.523 255.093 116.258 255.065C115.654 255.065 116.799 253.38 119.438 251.186C123.682 247.813 128.437 245.141 133.524 243.269C136.157 242.351 138.858 241.639 141.601 241.138C142.968 240.852 144.335 240.661 145.734 240.471L150.027 240.248C158.641 240.316 166.979 243.297 173.684 248.706L173.843 249.056Z" fill="#231F20"/>
<path d="M365.578 325.622C361.885 325.547 358.205 325.164 354.576 324.477C352.763 324.159 350.951 323.778 349.17 323.333C348.28 323.121 347.39 322.866 346.499 322.57L345.45 322.188C345.356 322.21 345.258 322.21 345.164 322.188C345.108 323.247 345.108 324.308 345.164 325.368C345.164 326.703 345.45 328.007 345.705 329.342C347.231 338.881 349.552 348.42 351.364 357.959C352.159 362.22 352.986 366.513 353.654 370.678C354.639 376.154 355.086 381.713 354.989 387.276C354.989 388.993 354.989 388.771 354.544 387.276C354.099 385.782 354.131 385.273 353.94 384.287C353.749 383.302 353.209 381.648 353.05 380.058C351.619 368.961 349.266 357.959 347.135 346.799C345.895 340.09 344.115 333.221 343.352 326.194C343.352 325.368 343.352 324.509 343.352 323.651V322.347V320.376C343.638 320.376 344.146 320.058 344.242 320.185H344.623C344.623 320.185 344.623 320.185 344.878 320.185L345.132 319.93C345.132 319.612 345.609 319.93 345.864 319.93L346.436 320.153C347.104 320.344 347.74 320.566 348.407 320.725C349.743 321.107 351.078 321.393 352.414 321.679C355.137 322.214 357.885 322.606 360.649 322.856C365.264 323.393 369.935 323.178 374.481 322.22C381.429 320.924 387.969 317.992 393.559 313.666C395.617 312.109 397.475 310.304 399.092 308.293C400.599 306.13 401.838 303.792 402.78 301.329C403.208 300.29 403.58 299.229 403.893 298.149C405.038 293.952 405.26 292.585 406.087 291.79C406.278 291.599 406.468 291.345 406.627 291.218C406.786 291.091 407.422 292.744 406.818 296.083C405.891 301.275 403.744 306.174 400.555 310.375C397.365 314.576 393.224 317.96 388.471 320.248C384.933 322.034 381.198 323.4 377.342 324.318C373.503 325.314 369.544 325.774 365.578 325.686V325.622Z" fill="#231F20"/>
<path d="M184.176 410.996C151.839 418.723 95.8442 414.176 87.9586 407.53C78.9919 399.74 113.778 393.381 113.778 393.381C115.348 398.276 118.427 402.548 122.573 405.587C126.72 408.625 131.722 410.274 136.862 410.297C155.654 410.996 184.176 410.996 184.176 410.996Z" fill="#231F20"/>
<path d="M330.092 408.994C309.361 413.636 251.363 419.836 239.058 408.803C231.331 401.871 274.766 396.084 274.766 396.084C274.766 396.084 266.562 403.27 267.993 404.924C269.424 406.577 330.092 408.994 330.092 408.994Z" fill="#231F20"/>
<path d="M225.448 108.353C218.612 109.411 212.283 112.595 207.358 117.451C202.433 122.308 199.161 128.592 198.007 135.412C197.213 140.517 197.375 145.725 198.484 150.77C199.285 154.53 200.445 158.203 201.95 161.74C202.713 163.521 203.572 165.27 204.43 166.987L205.13 168.29C205.448 168.895 205.957 169.753 206.402 170.453C207.387 171.915 208.31 173.378 209.391 174.809L210.853 177.639V179.578V180.31C210.853 180.5 210.663 180.946 210.408 181.073C209.884 181.462 209.305 181.773 208.691 181.995C207.873 182.307 207.018 182.51 206.147 182.599C205.025 182.68 203.899 182.68 202.777 182.599C200.424 182.599 197.785 182.281 195.75 182.058C189.867 181.359 183.985 180.818 178.102 180.373C169.231 179.706 160.296 179.356 151.52 179.356C145.892 179.356 140.232 179.61 134.668 180.119C131.87 180.341 129.103 180.564 126.401 181.009C125.052 181.217 123.715 181.493 122.394 181.836C121.064 182.046 119.762 182.409 118.515 182.917C117.052 183.648 116.544 184.157 116.416 183.998C116.289 183.839 116.639 183.012 117.72 181.836C119.25 180.152 121.084 178.771 123.126 177.766C125.937 176.394 128.921 175.41 131.997 174.841C143.707 173.316 155.522 172.752 167.323 173.155C173.206 173.155 179.056 173.505 184.875 173.855C187.801 174.046 190.726 174.205 193.651 174.332H195.813H196.354H196.513H196.735L197.848 174.586C198.426 174.695 199.019 174.695 199.597 174.586L198.739 173.314C198.565 172.966 198.374 172.626 198.166 172.297L197.371 170.93L196.354 169.117C195.062 166.664 193.915 164.137 192.92 161.549C190.902 156.42 189.659 151.019 189.231 145.524C188.982 141.261 189.303 136.983 190.185 132.805C190.661 130.72 191.244 128.661 191.934 126.636C192.707 124.609 193.632 122.643 194.7 120.754C199.053 113.326 205.579 107.411 213.397 103.806C218.136 101.692 223.201 100.402 228.373 99.9906C233.448 99.45 238.573 99.6105 243.604 100.468C251.321 101.763 258.566 105.051 264.622 110.007C270.661 115.103 275.054 121.875 277.245 129.466C280.468 141.038 279.706 153.357 275.083 164.443C274.156 166.864 273.095 169.231 271.903 171.534C270.257 174.525 268.178 177.257 265.735 179.642C264.54 180.835 263.009 181.634 261.347 181.931C260.743 181.931 260.107 182.281 259.693 182.313C258.421 182.313 259.439 178.402 262.174 172.519C264.113 168.1 266.116 163.743 267.611 159.26C269.117 154.764 270.046 150.095 270.377 145.365C271.455 136.298 268.945 127.168 263.382 119.927C259.016 114.652 253.096 110.891 246.466 109.18C239.593 107.345 232.388 107.127 225.416 108.544L225.448 108.353Z" fill="#231F20"/>
<path d="M355.149 187.592C355.166 187.359 355.231 187.131 355.34 186.924V186.733C355.34 186.733 355.34 186.479 355.34 186.415L354.958 186.161L352.383 185.239C348.855 184.029 345.255 183.042 341.603 182.282C338.901 181.773 336.166 181.455 333.432 181.074C323.713 179.571 313.883 178.912 304.051 179.102C299.674 179.258 295.311 179.672 290.983 180.342C285.45 181.074 280.076 182.504 274.512 182.95C272.763 182.95 272.636 181.964 273.781 180.342C274.495 179.324 275.352 178.414 276.324 177.639C277.558 176.677 278.993 176.003 280.521 175.668C292.078 172.957 303.994 172.12 315.816 173.188C322.875 173.792 330.252 173.887 337.438 174.969C341.381 175.604 345.324 176.336 349.235 177.353C351.174 177.894 353.146 178.403 355.053 179.102L356.516 179.611L357.216 179.865L358.201 180.279C359.498 180.86 360.743 181.551 361.922 182.345C362.197 183.06 362.42 183.793 362.589 184.539C362.617 185.428 362.521 186.316 362.303 187.179L361.413 191.153L359.855 198.18C358.329 205.303 356.675 212.425 355.912 219.548C355.281 225.015 354.994 230.516 355.053 236.019V239.58C355.053 244 355.053 245.367 353.368 246.48C353.042 246.765 352.691 247.02 352.319 247.243C351.142 247.847 349.839 246.035 349.139 242.537C348.083 232.007 348.49 221.381 350.348 210.963C351.524 203.141 353.146 195.35 354.672 187.719L355.149 187.592Z" fill="#231F20"/>
<path d="M136.289 243.395C143.657 241.456 151.401 241.456 158.769 243.395C166.137 245.572 172.711 249.848 177.688 255.7C181.374 259.824 184.215 264.632 186.051 269.85C187.56 274.421 188.26 279.22 188.118 284.031C187.891 288.823 186.859 293.542 185.065 297.99C181.332 306.694 174.75 313.87 166.4 318.34C159.195 322.227 151.12 324.218 142.934 324.127C132.396 324.237 122.243 320.167 114.699 312.807C112.377 310.582 113.617 310.009 116.511 310.518C118.005 310.709 119.691 311.408 121.885 311.917C124.175 312.547 126.426 313.312 128.626 314.206C137.026 317.711 146.371 318.238 155.112 315.701C159.427 314.36 163.496 312.331 167.163 309.691C170.745 306.938 173.831 303.593 176.289 299.802C178.944 294.884 180.334 289.382 180.334 283.793C180.334 278.203 178.944 272.702 176.289 267.783C173.465 262.279 169.215 257.634 163.984 254.333C158.634 251.15 152.457 249.633 146.241 249.977C138.302 250.49 130.578 252.772 123.633 256.654C122.266 257.385 120.963 258.149 119.627 258.943L117.083 260.565L114.222 262.568L112.187 263.618C111.674 263.823 111.141 263.972 110.597 264.063C109.579 264.063 108.975 262.982 108.53 261.71C108.069 260.167 107.781 258.578 107.671 256.972L107.29 252.33C106.94 247.528 106.686 242.791 106.463 237.989C105.986 228.164 105.382 218.498 105.636 208.641C105.636 206.479 105.636 204.348 105.923 202.281C106.035 199.326 106.614 196.407 107.64 193.633C108.241 192.292 109.255 191.178 110.533 190.453C110.977 190.165 111.458 189.94 111.964 189.785C112.664 189.785 112.886 190.421 113.013 191.852C113.206 193.967 113.206 196.096 113.013 198.211C112.441 206.51 112.664 215.318 113.013 224.221C113.363 233.124 113.84 242.155 114.603 251.153V253.125C114.603 253.125 114.603 253.125 114.762 253.125L115.462 252.679L116.924 251.789C118.896 250.613 120.867 249.468 122.966 248.609C127.154 246.542 131.544 244.912 136.066 243.745L136.289 243.395Z" fill="#231F20"/>
<path d="M204.176 402.57V402.38L203.731 401.426C203.095 400.09 202.586 398.723 202.046 397.388C200.996 394.641 200.135 391.826 199.47 388.961C198.103 383.14 197.78 377.121 198.516 371.187C199.339 365.217 201.381 359.48 204.515 354.332C207.65 349.185 211.809 344.737 216.736 341.266C220.393 338.673 224.485 336.756 228.819 335.606C233.038 334.415 237.407 333.837 241.792 333.889C249.577 333.979 257.191 336.177 263.827 340.248C270.493 344.368 275.629 350.554 278.454 357.864C281.145 364.957 282.231 372.559 281.633 380.122C281.399 383.873 280.694 387.58 279.535 391.155C278.94 392.954 278.218 394.707 277.373 396.402C276.967 397.266 276.511 398.104 276.005 398.914L275.242 400.122C275.02 400.44 274.638 401.076 274.574 401.14L273.875 401.998C273.66 402.279 273.426 402.544 273.175 402.793C272.985 402.984 272.38 403.397 272.985 403.493C273.674 403.671 274.375 403.799 275.083 403.874L278.454 404.256L282.842 404.669C288.756 405.178 294.638 405.496 300.521 405.687C308.534 405.973 316.419 405.941 324.559 405.687C332.528 405.739 340.483 405.015 348.311 403.524C350.664 402.952 351.491 402.602 351.714 402.92C351.936 403.238 350.792 404.033 348.82 404.987C342.126 407.884 334.985 409.615 327.707 410.106C317.193 410.927 306.641 411.16 296.101 410.806C290.823 410.647 285.576 410.392 280.202 410.011L276.228 409.661L273.048 409.343C271.776 409.343 270.504 408.993 269.296 408.739C268.419 408.672 267.574 408.38 266.844 407.889C266.114 407.399 265.524 406.728 265.131 405.941C264.908 405.496 265.131 405.241 265.131 404.86L265.321 403.811L265.512 402.793C265.512 402.602 265.512 402.443 265.512 402.252L266.244 401.489L269.01 398.119C269.315 397.786 269.572 397.411 269.773 397.006L270.314 396.147C270.987 395.008 271.592 393.829 272.126 392.618C273.143 390.078 273.92 387.449 274.447 384.764C275.432 379.233 275.432 373.571 274.447 368.039C273.704 363.548 272.13 359.234 269.805 355.32C267.32 351.416 263.955 348.149 259.98 345.781C251.738 341.092 242.037 339.662 232.793 341.775C227.768 342.807 223.042 344.961 218.967 348.078C214.892 351.195 211.575 355.192 209.264 359.772C207.006 364.303 205.696 369.248 205.416 374.303C205.116 379.552 205.729 384.813 207.229 389.852C207.79 391.9 208.491 393.908 209.327 395.861C209.709 396.879 210.186 397.833 210.631 398.818C211.076 399.804 212.221 401.807 212.984 403.27C213.357 403.887 213.576 404.585 213.62 405.305L213.938 407.117V407.34L213.461 407.117L213.238 407.435L212.729 408.071C212.206 408.529 211.569 408.837 210.885 408.962C209.217 409.349 207.529 409.646 205.829 409.852L201.95 410.297C197.308 410.838 192.697 411.283 188.055 411.633C177.626 412.491 167.164 413.032 156.703 413.095C151.457 413.095 146.21 413.095 140.805 412.682C138.155 412.491 135.516 412.205 132.887 411.823C130.13 411.453 127.429 410.749 124.843 409.725C120.717 407.748 117.363 404.461 115.304 400.376C113.33 396.68 111.834 392.748 110.852 388.675C108.989 380.832 107.924 372.821 107.672 364.764C107.513 361.203 107.45 357.737 107.672 354.176C108.086 340.916 109.58 336.751 111.615 334.175C112.02 333.575 112.489 333.02 113.014 332.522C113.746 332.045 114.095 333.094 114.382 335.447C114.74 339.029 114.9 342.627 114.858 346.226C114.858 353.222 115.272 360.281 115.717 367.339C116.154 374.321 117.218 381.249 118.897 388.039C120.582 394.399 123.698 401.012 127.832 402.92C129.147 403.489 130.523 403.905 131.933 404.16C133.555 404.478 135.113 404.733 137.021 404.955C140.519 405.337 144.143 405.528 147.8 405.655C158.643 405.941 169.708 405.496 180.742 404.764C186.243 404.383 191.775 403.938 197.276 403.365L203.826 402.634C203.826 402.634 204.24 402.634 204.081 402.634L204.176 402.57Z" fill="#231F20"/>
<path d="M404.37 300.852C403.08 304.119 401.358 307.199 399.251 310.01C397.124 312.842 394.584 315.34 391.715 317.418C386.045 321.481 379.369 323.911 372.414 324.445C367.54 324.957 362.618 324.797 357.788 323.968C354.787 323.425 351.824 322.692 348.916 321.775L347.644 321.298H347.295C347.295 321.298 347.008 321.298 347.072 321.298V321.965C347.072 322.347 347.072 322.76 347.072 323.237L347.517 326.735C347.962 329.183 348.408 331.695 348.948 334.175C349.966 339.199 351.174 344.191 352.128 349.311C353.495 356.401 354.894 363.556 355.816 370.742C356.479 375.364 356.776 380.031 356.707 384.701V388.23L356.071 391.728C355.712 394.043 355.223 396.336 354.608 398.596C353.877 401.394 353.527 400.885 353.113 398.405C352.891 397.165 352.732 395.416 352.35 393.349C352.128 392.268 351.873 391.187 351.619 390.17C351.619 389.566 351.396 388.961 351.237 388.357L351.047 386.481C350.393 377.408 349.193 368.383 347.454 359.454C345.641 350.455 343.606 341.361 342.08 331.886C341.794 329.946 341.412 328.07 341.19 326.035L340.999 324.509C340.892 323.772 340.838 323.028 340.84 322.283V317.546L341.508 315.956L341.857 315.193V314.779L342.016 315.002C342.652 314.366 343.861 314.366 345.196 314.62C346.532 314.875 348.376 315.606 349.807 316.051L352.764 316.91C356.291 317.897 359.898 318.578 363.543 318.945C369.435 319.658 375.413 318.894 380.936 316.719C386.371 314.475 391.026 310.682 394.322 305.812C398.338 299.647 400.379 292.404 400.173 285.049C400.04 279.482 398.568 274.028 395.88 269.151C393.211 264.357 389.139 260.496 384.211 258.085C376.394 254.705 367.661 254.077 359.441 256.305C357.629 256.686 355.88 257.29 354.067 257.831C351.733 258.668 349.355 259.379 346.945 259.961C345.615 260.262 344.222 260.093 343.002 259.484C342.448 259.271 341.915 259.005 341.412 258.689C340.713 258.149 340.903 257.259 341.889 256.082C343.39 254.429 345.235 253.127 347.295 252.266C355.433 248.117 364.537 246.228 373.654 246.797C378.6 247.103 383.43 248.417 387.848 250.659C392.267 252.901 396.18 256.023 399.346 259.834C403.668 265.646 406.416 272.476 407.324 279.662C408.232 286.849 407.27 294.147 404.529 300.852H404.37Z" fill="#231F20"/>
<path d="M343.478 128.036C343.478 128.672 342.524 128.385 341.284 127.622C340.76 127.263 340.307 126.81 339.948 126.287C339.917 125.842 339.917 125.396 339.948 124.951C339.948 124.697 341.633 122.185 342.142 121.295C342.611 120.461 343.213 119.71 343.923 119.069C345.29 117.702 346.562 116.303 347.802 114.967C348.072 114.645 348.408 114.385 348.788 114.204C350.075 113.552 351.17 112.577 351.967 111.374C351.967 111.183 352.285 111.024 352.222 110.706C352.77 109.303 353.567 108.01 354.575 106.891C355.592 106.223 356.483 105.46 357.532 104.729C357.532 104.729 357.532 104.411 358.041 104.442C358.549 104.474 358.899 104.093 359.185 103.838C359.557 103.425 359.961 103.042 360.394 102.694C360.729 102.539 361.081 102.421 361.443 102.344C361.761 102.344 362.524 102.694 362.588 102.821C362.651 102.948 363.224 103.139 363.573 103.266C363.689 103.243 363.808 103.243 363.923 103.266C364.296 104.708 364.435 106.2 364.336 107.686L364.05 108.512L363.351 110.261L361.92 112.996C361.734 113.251 361.481 113.45 361.189 113.568C361.189 113.568 358.963 117.098 358.804 117.193C358.645 117.288 357.786 118.497 356.769 118.624C356.578 118.624 356.483 118.815 356.387 118.942C355.421 119.91 354.356 120.774 353.208 121.517C352.635 121.931 352.158 122.439 351.649 122.885C351.141 123.33 351.395 123.107 351.395 123.107C351.395 123.107 351.045 123.107 350.95 123.33C349.672 124.32 348.451 125.382 347.293 126.509C347.039 126.796 345.29 127.4 345.036 127.749C344.781 128.099 343.509 127.781 343.478 128.036Z" fill="#231F20"/>
<path d="M236.451 48.4165C236.133 47.8123 236.991 47.4944 238.517 47.3672C239.225 47.3841 239.924 47.524 240.584 47.7805C240.918 48.0971 241.216 48.4489 241.474 48.8298C241.474 49.0206 241.888 52.0095 242.11 52.8681C242.237 53.7964 242.237 54.7378 242.11 55.6662C242.11 57.574 241.92 59.4818 241.856 61.3896C241.821 61.8147 241.725 62.2324 241.57 62.6297C241.092 64.0291 240.908 65.5121 241.029 66.9859C241.029 67.2403 241.029 67.4946 241.22 67.749C241.508 69.3686 241.508 71.0262 241.22 72.6457C240.743 73.8858 240.393 75.1895 239.885 76.4614C239.885 76.6203 239.885 76.8429 239.598 77.0019C239.312 77.1609 238.994 77.765 238.899 78.1466C238.794 78.7382 238.566 79.3013 238.231 79.8C238.231 80.0862 237.691 80.3406 237.404 80.595C237.25 80.6843 237.074 80.7313 236.896 80.7313C236.717 80.7313 236.542 80.6843 236.387 80.595C236.133 80.3406 235.783 80.595 235.497 80.595C235.381 80.6111 235.263 80.6111 235.147 80.595C234.684 80.0635 234.259 79.5004 233.875 78.9097C233.476 78.311 233.165 77.6577 232.953 76.9701L232.571 74.49C232.571 73.2181 232.38 71.9144 232.317 71.66C232.253 71.4057 232.317 71.0877 232.539 70.8333C232.762 70.5789 232.222 66.9223 232.253 66.7633C232.253 65.9684 232.253 65.1735 232.794 64.4421C232.853 64.2886 232.853 64.1187 232.794 63.9652C232.996 62.584 233.316 61.2225 233.748 59.8952C233.748 59.2274 233.748 58.5279 233.939 57.8284C233.939 57.8284 233.939 57.6058 234.098 57.4786C234.111 57.3199 234.111 57.1603 234.098 57.0017C234.098 55.38 234.67 53.822 234.606 52.1049C234.606 51.7234 235.497 50.0063 235.497 49.5612C235.497 49.116 236.578 48.6709 236.451 48.4165Z" fill="#231F20"/>
<path d="M327.93 181.644C324.082 181.295 320.235 180.913 316.324 180.849H312.063C307.071 180.849 302.047 180.849 297.023 181.295C294.829 181.517 292.604 181.74 290.41 182.09C287.617 182.655 284.792 183.048 281.952 183.266C281.061 183.266 281.061 182.789 281.697 182.058C282.625 181.034 283.847 180.323 285.195 180.023C290.99 178.814 296.89 178.175 302.81 178.115C306.34 178.115 310.028 177.797 313.653 177.765C317.278 177.733 321.634 177.924 325.609 178.274C328.057 178.274 330.505 178.783 332.954 179.069C336.642 179.641 340.299 180.309 343.892 181.167C346.701 181.755 349.472 182.509 352.191 183.425L354.003 184.061C356.166 185.078 356.738 185.651 356.833 186.509C356.864 186.699 356.864 186.892 356.833 187.082C356.833 187.686 355.689 187.654 354.162 187.082C349.376 185.418 344.463 184.142 339.472 183.266C335.688 182.535 331.777 182.09 327.898 181.708L327.93 181.644Z" fill="#231F20"/>
<path d="M104.62 100.595C103.984 100.595 104.206 99.6731 104.906 98.4012C105.282 97.8505 105.769 97.3847 106.337 97.034C106.781 96.99 107.228 96.99 107.672 97.034C107.927 97.034 110.534 98.4648 111.488 98.91C112.365 99.3193 113.17 99.8668 113.873 100.532L118.356 104.029C118.681 104.313 118.96 104.645 119.183 105.015C119.961 106.26 120.977 107.341 122.172 108.195C122.362 108.195 122.521 108.544 122.871 108.513C124.308 109.318 125.572 110.398 126.591 111.692C127.196 112.932 127.895 114.014 128.563 115.158C128.563 115.349 128.881 115.381 128.785 115.731C128.69 116.08 128.944 116.716 129.167 117.034C129.537 117.474 129.837 117.967 130.057 118.497C130.121 118.876 130.121 119.263 130.057 119.642C130.057 120.023 129.231 120.691 129.072 120.723C128.913 120.754 128.499 121.263 128.213 121.613L127.895 121.931C126.505 121.838 125.134 121.549 123.825 121.072L121.822 119.61C120.836 118.878 119.787 118.115 119.532 117.988C119.278 117.861 119.214 117.511 119.087 117.257C118.96 117.002 115.908 114.999 115.908 114.904C115.431 114.3 114.668 113.982 114.572 112.996C114.572 112.805 114.572 112.742 114.286 112.646C113.327 111.729 112.464 110.717 111.71 109.626C111.265 109.085 110.757 108.672 110.28 108.195C109.803 107.718 110.28 107.94 110.121 107.845C109.962 107.75 110.121 107.527 109.866 107.432C108.836 106.229 107.732 105.093 106.559 104.029C106.273 103.807 105.51 102.09 105.128 101.867C104.747 101.645 104.906 100.627 104.62 100.595Z" fill="#231F20"/>
</g>
<defs>
<clipPath id="clip0_117_833">
<rect width="500" height="500" fill="white"/>
</clipPath>
</defs>
</svg>
