<svg width="500" height="500" viewBox="0 0 500 500" fill="none" xmlns="http://www.w3.org/2000/svg">
<path d="M166.546 277.33C161.118 281.13 156.774 277.33 135.061 277.33C91.634 270.816 52.7577 244.217 46.5795 183.963C45.2277 170.779 53.6363 144.336 66.6645 131.418C50.9223 131.418 34.8649 108.998 37.3506 99.8233C41.8953 83.0491 84.0888 90.8717 91.634 104.166L113.89 84.0818C105.427 68.9003 104.663 55.8542 118.776 39.0266C133.433 28.7127 146.461 40.1119 147.547 52.5975C147.547 73.2257 143.962 73.4248 138.318 81.367C172.457 93.816 207.657 102.309 221.915 118.823C214.874 105.638 229.768 70.5103 280.541 84.0818C327.041 96.5111 348.358 120.298 383.678 147.593C383.678 147.593 370.65 107.424 373.907 89.51C377.164 71.5964 387.478 74.3108 398.878 84.0818C410.277 93.8528 411.363 137.279 411.363 137.279C411.363 137.279 439.047 126.423 450.447 132.394C461.846 138.365 465.646 157.364 458.047 166.05C450.447 174.735 396.164 165.507 421.134 193.191C446.104 220.876 436.876 255.074 421.134 257.788C405.392 260.503 393.992 243.132 364.679 240.961C335.366 238.79 329.395 252.36 329.395 252.36C329.395 252.36 309.853 270.274 313.653 290.901C317.453 311.529 385.85 339.213 398.878 377.212C411.906 415.21 386.935 437.466 350.566 445.066C314.196 452.666 254.485 369.069 254.485 369.069C254.485 369.069 221.914 444.523 201.829 453.209C181.744 461.894 156.774 445.066 156.774 445.066C156.774 445.066 141.032 473.836 122.575 461.894C104.119 449.951 96.5195 432.581 91.634 420.639C86.7485 408.696 90.0055 384.269 104.119 377.212C118.233 370.155 141.032 377.212 141.032 377.212L190.43 301.215L166.546 277.33Z" fill="#EAEAEA" stroke="#E1306C" stroke-opacity="0.3" stroke-width="5"/>
<path d="M181.565 423.78C159.057 418.619 181.285 378.869 204.565 348.916C213.505 337.263 221.513 324.923 228.514 312.011L219.419 305.515C219.419 305.515 200.492 336.802 189.361 348.846C178.23 360.89 161.269 388.139 160.462 398.744C159.654 409.348 160.216 423.78 181.565 423.78Z" fill="#231F20"/>
<path d="M357.419 406.892C307.135 404.68 186.552 250.422 186.552 250.422C197.367 245.506 210.36 224.753 210.36 224.753L205.128 219.205C205.128 219.205 186.903 243.785 172.576 246.173C172.576 246.173 168.749 246.173 174.859 252.072C180.969 257.972 231.779 313.523 242.033 326.375C252.286 339.227 314.509 403.381 331.926 408.578C348.325 413.459 348.325 413.459 352.995 409.982L357.419 406.892Z" fill="#231F20"/>
<path d="M158.742 247.12C148.769 248.981 138.508 248.633 128.684 246.101L123.382 244.626C121.626 244.135 119.87 243.327 118.255 242.695C112.348 240.145 106.752 236.929 101.575 233.109C99.1174 231.072 96.5541 229.141 94.2365 226.964C91.8966 224.747 89.681 222.402 87.5999 219.941C85.7028 217.838 83.921 215.635 82.2624 213.339C80.5346 211.102 78.9513 208.756 77.522 206.316L74.7479 201.681C73.9403 200.066 73.2029 198.416 72.4304 196.765C71.591 195.161 70.9428 193.464 70.4991 191.709C70.0426 189.953 69.5861 188.197 69.2701 186.442C68.954 184.686 69.4808 184.37 70.9205 185.88C73.1373 188.17 75.0065 190.773 76.4686 193.605C82.3057 206.337 90.7656 217.692 101.295 226.929C107.916 232.515 115.494 236.858 123.663 239.745C132.634 243.058 142.228 244.341 151.754 243.503C154.669 243.152 157.583 242.66 160.427 242.028C163.272 241.396 166.081 240.483 168.785 239.254C177.029 235.967 184.572 231.14 191.012 225.033C195.84 220.265 199.745 214.646 202.53 208.458C203.152 207.131 203.703 205.771 204.18 204.385C206.076 199.258 206.603 197.643 208.359 196.765C208.723 196.557 209.098 196.37 209.482 196.203C210.606 195.852 211.238 198.451 210.115 202.735C206.31 215.903 198.026 227.33 186.693 235.04C178.313 241.115 168.738 245.34 158.601 247.436L158.742 247.12Z" fill="#231F20"/>
<path d="M141.852 188.092C142.414 187.39 144.661 184.581 147.084 181.983C149.507 179.384 152.07 176.926 152.562 176.505C153.054 176.083 156.705 173.239 157.092 172.993L158.04 172.291L158.988 171.659H159.269C159.269 171.659 159.269 171.413 159.269 171.308V170.957V170.395L159.023 168.604C159.023 168.288 158.531 163.969 158.075 159.474C157.724 156.16 157.042 152.89 156.038 149.712C155.792 149.045 155.125 146.938 154.318 144.831C153.699 143.181 152.996 141.564 152.211 139.986C152 139.494 153.159 138.897 153.405 139.248C154.413 140.844 155.283 142.524 156.003 144.27C156.986 146.562 157.842 148.906 158.567 151.292C159.409 153.996 159.936 156.454 159.971 156.665C160.463 158.491 160.884 160.387 161.235 162.248L161.727 164.847L162.394 168.358L162.78 170.114L163.412 172.747C163.412 172.958 163.658 173.239 163.412 173.379L162.851 173.801L161.727 174.714L160.252 175.943L157.689 178.12C155.188 180.295 152.841 182.642 150.666 185.143C149.437 186.547 148.278 188.022 147.154 189.462C146.452 190.34 145.609 191.077 144.872 191.92C144.134 192.763 143.397 192.447 142.379 191.92C141.36 191.393 141.431 188.619 141.852 188.092Z" fill="#231F20"/>
<path d="M341.759 214.5C323.71 210.286 292.599 188.691 280.238 188.691C275.217 188.691 279.747 207.723 282.064 208.671C284.382 209.619 275.041 209.479 273.496 199.225C272.804 191.082 273.409 182.88 275.287 174.926C275.287 174.926 296.356 188.972 305.486 191.57C314.615 194.169 347.061 210.005 347.061 210.005C347.061 210.005 344.041 215.027 341.759 214.5Z" fill="#231F20"/>
<path d="M273.075 212.462C273.075 212.462 276.586 213.375 275.287 219.204C273.988 225.033 255.307 265.766 255.307 265.766L249.057 257.057L273.075 212.462Z" fill="#231F20"/>
<path d="M253.165 114.949C251.444 123.833 244.667 130.856 241.963 131.032C240.559 131.032 238.171 131.629 238.452 130.294C237.152 134.648 240.067 143.357 244.526 139.073C247.069 136.397 249.361 133.494 251.374 130.4C254.885 125.132 266.93 117.161 263.769 109.893C263.769 109.893 259.415 100.166 248.038 108.383C248.859 108.325 249.681 108.47 250.433 108.804C251.185 109.139 251.842 109.653 252.349 110.302C252.855 110.95 253.194 111.713 253.337 112.524C253.479 113.334 253.42 114.167 253.165 114.949Z" fill="#231F20"/>
<path d="M365.847 167.902C361.889 163.138 357.427 158.817 352.538 155.015C350.748 153.575 349.027 152.276 347.025 150.906C340.459 146.096 333.541 141.706 326.483 137.528C323.358 135.702 320.163 134.016 317.003 132.19C312.816 130.097 308.801 127.679 304.993 124.957C303.835 123.938 304.291 123.798 305.52 124.184C307.492 124.774 309.407 125.538 311.244 126.466C319.601 130.75 328.239 134.824 336.386 139.915C341.267 142.97 346.499 145.92 351.38 149.256C356.82 152.931 361.878 157.143 366.479 161.827C369.356 164.759 371.856 168.038 373.923 171.589C374.712 172.964 375.37 174.41 375.89 175.908C376.392 177.358 376.814 178.835 377.154 180.332C377.645 182.544 380.244 183.844 382.807 185.248C387.261 186.992 391.445 189.357 395.238 192.271C396.081 192.968 396.868 193.732 397.59 194.554C398.643 195.597 399.364 196.929 399.662 198.381C399.818 199.137 399.732 199.923 399.416 200.628C399.312 200.904 399.17 201.164 398.995 201.401C398.468 202.033 397.204 200.874 395.484 199.189C393.022 196.352 389.981 194.077 386.564 192.517C384.809 191.604 383.053 190.831 380.876 189.848C378.484 188.779 376.325 187.252 374.52 185.354C373.163 183.619 372.28 181.562 371.957 179.384C371.63 178.027 371.159 176.708 370.552 175.451C369.288 172.782 367.696 170.281 365.812 168.007L365.847 167.902Z" fill="#231F20"/>
<path d="M211.309 206.668C208.533 215.231 203.932 223.09 197.825 229.703C191.798 236.154 184.662 241.471 176.756 245.399C173.842 246.804 170.962 248.138 167.978 249.262C164.935 250.329 161.841 251.243 158.708 252.001C147.57 254.349 136.03 253.976 125.068 250.912C114.21 247.909 104.094 242.684 95.3609 235.567C87.6807 229.346 80.9911 221.993 75.5212 213.761C68.3311 203.36 64.0075 191.249 62.9853 178.647C62.7043 174.749 63.512 175.135 65.3028 178.155C66.5366 180.099 67.6506 182.116 68.6387 184.195C70.2231 186.861 71.5517 189.671 72.6066 192.587C76.8216 203.736 83.1666 213.957 91.2876 222.68C99.3452 231.584 109.324 238.537 120.468 243.012L125.595 244.838C127.336 245.362 129.106 245.784 130.897 246.102C134.514 246.875 138.191 247.333 141.888 247.471C143.714 247.471 145.575 247.471 147.401 247.471H150.21C151.123 247.471 152.001 247.19 152.914 247.015L158.391 246.067L163.694 244.451C179.617 239.695 193.081 228.961 201.266 214.499C203.659 210.084 205.42 205.356 206.498 200.453C207.552 195.501 208.082 190.452 208.079 185.389V182.509L207.798 179.63C207.587 177.734 207.482 175.802 207.201 173.906C205.216 162.47 200.94 151.554 194.63 141.812C188.187 132.037 179.825 123.674 170.05 117.231C167.837 116.002 165.73 114.633 163.448 113.544C154.985 109.401 152.246 109.12 150.561 106.521C150.116 106.032 149.717 105.503 149.367 104.941C148.981 104.098 149.788 103.572 151.79 103.326C153.052 103.219 154.32 103.219 155.582 103.326C157.022 103.607 158.708 104.028 160.604 104.59C171.609 108.629 181.475 115.266 189.363 123.938C197.571 132.615 204.086 142.75 208.57 153.821C215.54 170.585 216.604 189.219 211.59 206.668H211.309Z" fill="#231F20"/>
<path d="M154.703 170.606C154.734 170.503 154.734 170.393 154.703 170.29L154.247 167.341C153.79 165.304 153.299 163.232 152.772 161.196C152.245 159.159 151.789 158.246 151.473 156.736C150.174 151.434 148.839 146.202 147.294 140.829C146.601 138.446 145.781 136.101 144.836 133.806C143.441 131.032 142.437 128.077 141.852 125.028C141.852 124.044 143.01 123.658 144.626 123.904C145.514 124.02 146.366 124.332 147.119 124.818C147.872 125.304 148.508 125.951 148.98 126.713C151.575 132.599 153.54 138.743 154.844 145.043C155.616 148.835 157.197 152.522 158.355 156.35L160.006 162.635L161.551 169.307L162.218 172.292C162.369 172.744 162.44 173.22 162.429 173.696L161.094 174.469L158.496 176.014L156.705 177.103C153.353 179.109 150.222 181.463 147.365 184.125C145.288 186.314 143.386 188.662 141.676 191.148C141.29 191.675 140.903 192.237 140.482 192.728C138.867 194.625 138.024 194.941 136.303 194.133C135.908 193.979 135.521 193.803 135.145 193.606C133.951 192.869 133.74 191.359 134.653 189.638C137.586 184.443 141.498 179.864 146.171 176.154C147.927 174.793 149.756 173.527 151.648 172.362L153.088 171.449L154.317 170.677H154.528L154.703 170.606Z" fill="#231F20"/>
<path d="M112.953 192.868L105.087 188.83C104.104 188.338 103.05 188.057 102.067 187.566C98.5556 185.845 95.3251 183.668 91.919 181.842C90.4091 180.999 88.8289 180.332 87.319 179.525C85.2941 178.597 83.3946 177.417 81.6655 176.013C81.1388 175.557 81.6655 174.96 82.438 174.468C83.504 173.868 84.7495 173.669 85.9495 173.906C88.0839 174.429 90.1832 175.086 92.235 175.873C94.2761 176.697 96.2587 177.659 98.1694 178.752C100.487 180.051 103.191 180.719 105.684 181.842L113.901 185.354L118.957 187.636C121.556 188.76 124.084 189.989 126.717 191.148C128.754 191.955 130.896 192.377 133.038 193.114L134.443 193.57C136.128 194.378 136.409 195.115 135.742 197.082C135.742 197.503 135.461 197.925 135.285 198.346C135.041 198.954 134.602 199.464 134.036 199.795C133.47 200.125 132.81 200.258 132.16 200.172C128.371 199.485 124.687 198.304 121.205 196.661L113.128 192.938L112.953 192.868Z" fill="#231F20"/>
<path d="M348.115 355.519C352.565 360.669 356.615 366.152 360.23 371.918C364.179 378.054 366.588 385.053 367.253 392.32C367.629 396.393 366.824 400.489 364.935 404.118C361.783 409.201 356.988 413.054 351.346 415.039L348.326 415.671C347.344 415.723 346.359 415.723 345.377 415.671C341.665 415.548 337.998 414.812 334.526 413.494C325.223 409.818 316.533 404.75 308.752 398.465C295.314 387.944 282.705 376.404 271.039 363.947C259.276 351.657 248.039 338.981 237.083 326.058C227.357 314.576 217.77 302.988 207.903 291.892C201.582 284.729 195.121 277.706 188.66 270.683C182.199 263.66 175.808 256.637 169.242 250.106C168.75 249.614 168.364 249.158 168.013 248.736C167.662 248.315 167.486 248.174 167.276 247.928C167.065 247.683 166.749 247.086 166.889 246.875C167.03 246.664 168.645 246.419 171.244 247.402C179.172 251.066 186.261 256.326 192.066 262.852C205.41 277.284 218.121 292.103 230.692 307.237C243.263 322.371 255.659 337.19 268.792 351.692C276.622 360.4 285.05 368.863 293.828 377.01C302.462 385.207 311.777 392.655 321.674 399.272C326.896 402.835 332.578 405.67 338.564 407.7C341.337 408.546 344.238 408.891 347.132 408.718C348.432 408.543 349.698 408.176 350.89 407.629C352.143 407.004 353.321 406.238 354.401 405.347C356.719 403.758 358.508 401.509 359.534 398.892C360.561 396.276 360.779 393.411 360.16 390.669C358.753 384.603 356.138 378.882 352.47 373.849C347.914 367.232 342.929 360.921 337.546 354.958C332.244 348.953 326.555 343.089 320.972 337.4C303.836 319.843 286.454 302.005 269.002 284.729C255.448 271.35 241.789 258.638 228.164 245.646L219.175 237.148C208.008 226.403 205.129 222.4 204.076 218.643C203.776 217.839 203.575 217.002 203.479 216.15C203.479 215.167 204.813 215.448 207.236 216.957C210.843 219.385 214.259 222.085 217.454 225.034C242.421 247.612 267.914 272.333 293.056 297.616C302.42 306.979 311.713 316.437 320.937 325.988C330.137 335.574 339.548 345.126 348.256 355.449L348.115 355.519Z" fill="#231F20"/>
<path d="M333.33 206.317C323.252 201.893 313.139 197.504 303.097 192.904C299.41 191.218 295.652 189.708 292 187.847C288.72 186.221 285.532 184.415 282.449 182.44C279.389 180.42 276.446 178.228 273.636 175.873C267.622 171.32 262.911 165.265 259.976 158.316C258.786 155.094 258.111 151.705 257.974 148.273C257.917 144.926 258.295 141.585 259.098 138.336C259.991 134.227 261.407 130.25 263.312 126.502C265.076 122.569 267.648 119.051 270.862 116.178C273.039 114.528 273.355 115.652 272.898 118.04C272.42 121.506 271.487 124.894 270.124 128.117C268.715 131.605 267.542 135.183 266.613 138.827C265.581 142.239 265.13 145.8 265.278 149.362C266.029 156.592 269.417 163.292 274.794 168.183C278.181 171.585 281.994 174.536 286.136 176.962C290.383 179.476 294.768 181.751 299.269 183.774C309.207 188.444 319.39 192.869 329.538 197.293L348.324 205.475C357.805 209.618 367.286 213.902 376.662 218.151C383.965 221.452 391.234 224.437 398.362 228.194C399.907 229.001 401.453 229.844 403.033 230.792C408.686 234.304 410.056 236.621 409.81 238.939C409.77 239.431 409.664 239.915 409.494 240.379C408.756 241.537 406.579 240.379 402.822 238.237C397.098 234.725 390.637 231.811 384.071 228.756C377.504 225.701 370.798 222.681 363.985 219.696L333.33 206.493V206.317Z" fill="#231F20"/>
<path d="M373.082 172.151C368.745 164.103 362.499 157.242 354.893 152.17C352.118 150.099 349.028 148.413 346.079 146.552C335.323 140.139 324.209 134.347 312.79 129.206C307.734 126.853 302.502 124.711 297.34 122.534C290.495 120.085 283.993 116.769 277.992 112.667C276.131 111.262 277.219 110.209 279.607 109.857C282.93 109.503 286.289 109.998 289.369 111.297C302.396 117.091 316.091 122.428 329.259 129.381C337.16 133.489 345.657 137.317 353.523 142.233C362.416 147.557 370.201 154.543 376.453 162.81C378.328 165.499 379.905 168.384 381.158 171.413C381.825 172.888 382.212 174.503 382.738 176.048L383.23 178.471L383.511 179.7C383.511 180.051 383.511 180.297 383.511 180.578V181.456V182.299C383.753 182.466 384.012 182.607 384.283 182.72L386.741 183.949C388.79 185.017 390.782 186.189 392.711 187.461C396.609 189.901 400.245 192.737 403.561 195.923C408.952 201.114 413.281 207.304 416.308 214.148C416.975 215.656 417.55 217.204 418.028 218.783C418.367 220.041 418.625 221.319 418.801 222.61C418.879 223.498 418.879 224.391 418.801 225.279C418.626 226.462 418.057 227.551 417.186 228.369C416.853 228.705 416.502 229.022 416.132 229.317C414.903 229.984 413.604 227.702 411.848 224.015C409.894 218.461 407.226 213.185 403.912 208.319C400.455 203.445 396.206 199.184 391.341 195.712C389.255 194.233 387.086 192.873 384.845 191.639L383.125 190.761L380.842 189.638C380.315 189.392 379.613 189.076 379.051 188.76C378.524 188.394 378.101 187.898 377.822 187.32L377.577 186.934C377.963 186.653 377.015 187.285 377.12 187.215L376.804 186.337L376.172 184.546C376.044 182.264 375.668 180.004 375.048 177.804C374.732 176.926 374.522 176.048 374.17 175.17L372.906 172.361L373.082 172.151Z" fill="#231F20"/>
<path d="M274.901 169.763C275.996 172.851 276.543 176.108 276.516 179.385C276.727 183.563 276.762 187.461 276.797 188.198C276.832 188.936 276.797 194.062 276.797 194.554C276.797 195.046 276.797 196.556 276.797 198.487C276.839 199.851 277.087 201.201 277.534 202.49C277.636 202.676 277.707 202.878 277.745 203.087C277.956 203.087 277.745 203.298 278.553 203.824C280.479 205.025 282.485 206.093 284.557 207.02L295.092 212.322C296.949 213.251 298.733 214.319 300.429 215.517C302.641 217.098 304.678 219.029 305.38 219.52C306.083 220.012 304.573 221.381 304.151 221.136C302.431 220.047 300.64 219.099 298.849 218.081C296.473 216.768 294.023 215.596 291.51 214.569C288.595 213.34 285.927 212.322 285.716 212.252C283.644 211.62 281.537 210.952 279.431 210.18C278.414 209.824 277.418 209.414 276.446 208.951L275.357 208.424L274.795 208.108L274.409 207.476C273.585 206.802 272.924 205.95 272.478 204.983C271.778 203.46 271.271 201.856 270.968 200.207C270.419 197.474 270.067 194.704 269.915 191.92L269.599 180.262C269.599 178.12 269.177 176.014 269.107 173.977C268.953 172.811 268.953 171.631 269.107 170.465C269.107 169.693 269.95 168.815 270.582 168.007C271.214 167.2 271.67 167.762 272.653 168.218C273.509 168.558 274.277 169.086 274.901 169.763Z" fill="#231F20"/>
<path d="M183.006 429.507C178.97 430.237 174.808 429.773 171.032 428.172C167.444 426.71 164.211 424.494 161.551 421.676C158.793 418.771 156.981 415.098 156.354 411.142C155.752 407.433 155.86 403.644 156.67 399.975C157.696 394.947 159.397 390.081 161.727 385.508C163.652 381.559 165.846 377.746 168.293 374.096C170.681 370.585 173.174 367.073 175.632 363.562L190.591 342.774C195.015 336.629 199.334 330.343 203.548 324.128C208.666 315.919 214.357 308.08 220.579 300.672C222.58 298.424 223.177 299.302 222.826 302.146C222.25 306.584 220.729 310.847 218.366 314.647C207.27 330.94 195.612 346.847 183.638 362.684C176.225 372.014 170.019 382.243 165.168 393.128C163.949 396.017 163.054 399.032 162.499 402.117C161.883 405.035 161.883 408.049 162.499 410.966C163.279 413.785 164.776 416.353 166.844 418.421C168.911 420.488 171.479 421.985 174.298 422.765C177.734 423.925 181.472 423.813 184.832 422.449C188.386 420.979 191.628 418.846 194.383 416.163C202.987 407.451 210.2 397.467 215.768 386.562C220.368 378.169 224.055 369.531 228.058 360.858C228.936 358.962 229.814 357.101 230.797 355.204C234.308 348.182 236.45 346.25 238.979 345.899C239.434 345.727 239.904 345.598 240.383 345.513C241.015 345.513 241.015 346.215 240.875 347.76C240.617 349.939 239.975 352.055 238.979 354.011C232.287 370.465 224.193 386.313 214.785 401.38C211.044 407.267 206.778 412.802 202.038 417.919C199.531 420.519 196.78 422.87 193.821 424.942C190.586 427.228 186.918 428.83 183.041 429.647L183.006 429.507Z" fill="#231F20"/>
<path d="M246.739 253.125C247.811 251.181 248.983 249.294 250.251 247.472L253.762 242.135C254.148 241.467 256.08 238.623 256.255 238.131L257.976 235.638C258.854 234.374 259.767 232.97 260.013 232.513C260.258 232.057 267.984 220.258 268.51 218.678C268.967 217.66 272.268 212.006 272.794 211.128C272.794 210.883 274.796 210.918 274.796 211.444C274.791 213.125 274.368 214.778 273.567 216.255C272.513 218.362 268.967 225.596 268.791 225.912L266.614 230.371L265.701 232.408L263.103 238.061C262.295 239.852 261.628 241.573 260.75 243.399L256.887 251.054C256.185 252.493 255.518 254.003 254.745 255.443C254.217 256.254 253.605 257.007 252.919 257.69C252.709 257.971 252.182 257.971 251.55 257.69C250.918 257.409 249.97 257.234 249.373 257.058C249.01 256.93 248.692 256.698 248.46 256.391C248.085 255.975 247.744 255.529 247.442 255.057C247.001 254.508 246.754 253.829 246.739 253.125Z" fill="#231F20"/>
<path d="M295.724 249.614C299.235 245.049 302.746 240.59 306.679 236.306C308.119 234.726 309.418 233.075 310.963 231.636C316.318 226.333 322.542 221.987 329.363 218.784L338.142 214.5C339.968 213.622 341.653 212.604 343.55 211.761L348.992 209.373C350.116 208.881 350.608 209.759 350.327 211.304C349.847 213.424 348.595 215.289 346.815 216.536C339.23 220.891 331.54 223.559 324.728 227.492C320.615 230.256 316.895 233.564 313.667 237.324C309.945 241.398 306.433 245.717 303.133 250.211C301.096 252.985 299.059 255.794 297.128 258.674C294.214 262.923 291.194 267.172 288.455 271.772C286.348 275.283 284.557 278.795 282.275 282.306C281.818 283.043 281.327 283.816 280.765 284.553C280.078 285.588 279.166 286.452 278.096 287.082C277.481 287.438 276.762 287.575 276.059 287.468C275.779 287.489 275.497 287.489 275.217 287.468C274.409 287.187 274.655 285.607 275.498 283.359C276.972 280.059 278.588 276.863 280.238 273.492C281.888 270.121 284.171 266.891 285.962 263.66C288.876 258.779 292.247 254.109 295.583 249.404L295.724 249.614Z" fill="#231F20"/>
<path d="M250.321 135.105C252.077 136.018 253.833 136.861 255.694 137.703L258.468 138.932L260.013 139.494L260.926 139.74C261.438 139.818 261.959 139.818 262.471 139.74C262.682 139.74 262.471 138.441 262.471 137.177L262.26 136.018C262.225 135.703 262.225 135.385 262.26 135.07V134.613H261.769L260.54 134.157L258.011 133.068C256.291 132.261 254.5 131.418 252.885 130.54C252.711 130.752 252.569 130.989 252.463 131.242L251.621 132.787C251.126 133.524 250.692 134.299 250.321 135.105Z" fill="#242021"/>
<path d="M255.132 126.01L264.894 129.873C265.634 128.326 266.268 126.73 266.79 125.097L257.028 121.234C256.299 122.786 255.666 124.381 255.132 126.01Z" fill="#242021"/>
<path d="M260.398 113.65C259.67 114.371 259.076 115.215 258.643 116.143L257.203 118.671L254.394 123.728C252.498 127.029 250.566 130.294 248.424 133.314C247.375 134.783 246.2 136.157 244.913 137.423C244.39 137.929 243.813 138.376 243.192 138.757C242.63 139.003 242.525 138.968 242.525 138.968C242.217 138.691 241.967 138.357 241.788 137.984L241.577 137.247C241.487 136.888 241.416 136.525 241.366 136.158C241.224 134.446 241.307 132.723 241.612 131.032C242.933 123.766 245.6 116.81 249.478 110.525C249.94 109.852 250.457 109.217 251.023 108.629L251.409 108.242H251.62C251.62 108.242 252.111 108.032 252.392 107.926C253.774 107.57 255.232 107.644 256.571 108.137C257.896 108.595 259.097 109.352 260.082 110.349C260.89 111.403 261.346 112.14 261.03 113.088C261.03 113.474 264.156 116.6 265.069 115.019C265.73 113.743 265.984 112.294 265.795 110.868C265.607 109.443 264.986 108.109 264.015 107.048C262.434 105.179 260.35 103.803 258.011 103.081C255.656 102.342 253.132 102.342 250.777 103.081C250.124 103.284 249.499 103.567 248.916 103.923C248.586 104.137 248.269 104.372 247.968 104.626L247.336 105.293C246.571 106.1 245.888 106.983 245.299 107.926C243.126 111.353 241.325 115.002 239.927 118.812C238.522 122.502 237.498 126.326 236.872 130.224C236.487 132.344 236.405 134.507 236.626 136.65C236.626 137.247 236.626 137.774 236.907 138.371C237.188 138.968 237.328 139.635 237.574 140.232C238.177 141.625 239.244 142.767 240.594 143.462C241.387 143.797 242.247 143.943 243.107 143.889C243.966 143.834 244.801 143.58 245.545 143.146C246.62 142.582 247.612 141.873 248.494 141.039C249.969 139.563 251.33 137.979 252.568 136.299C254.92 133.033 256.992 129.662 258.959 126.326C260.925 122.99 263.102 119.69 264.507 116.354C264.577 115.511 261.241 113.053 260.398 113.65Z" fill="#242021"/>
<path d="M423.927 161.054C423.576 161.476 423.119 160.879 422.592 159.65C422.385 159.063 422.279 158.446 422.276 157.824C422.431 157.463 422.607 157.111 422.803 156.771C422.803 156.771 424.98 155.612 425.682 155.19C426.338 154.826 427.05 154.577 427.789 154.453L432.214 153.4C432.551 153.346 432.895 153.346 433.232 153.4C434.414 153.54 435.613 153.421 436.744 153.048C436.954 153.048 437.13 153.048 437.305 152.732C438.496 152.183 439.787 151.884 441.098 151.854C442.151 152.1 443.205 152.171 444.258 152.346C444.434 152.346 444.574 152.346 444.715 152.346C444.855 152.346 445.417 152.767 445.733 152.767C446.175 152.699 446.625 152.699 447.067 152.767C447.313 152.767 447.559 153.154 447.805 153.4C447.934 153.799 447.934 154.229 447.805 154.629C447.805 154.945 447.805 155.366 447.805 155.717C447.82 155.845 447.82 155.975 447.805 156.103C447.093 156.912 446.264 157.61 445.347 158.175L443.521 158.667L441.484 159.299C441.484 159.299 441.063 159.299 440.852 159.299C440.641 159.299 438.043 160.212 437.902 160.212C437.762 160.212 436.779 160.563 436.111 160.212C436.111 160.212 435.866 160.212 435.76 160.212C434.753 160.406 433.731 160.512 432.705 160.528C432.179 160.528 431.687 160.738 431.16 160.809C430.634 160.879 430.95 160.809 430.844 160.809C430.73 160.773 430.608 160.773 430.493 160.809C429.308 160.963 428.135 161.197 426.982 161.511C426.701 161.511 425.261 161.265 424.945 161.511C424.629 161.757 424.032 160.879 423.927 161.054Z" fill="#231F20"/>
<path d="M390.392 106.417C389.936 106.206 390.392 105.714 391.586 105.012C392.108 104.707 392.678 104.494 393.272 104.38C393.645 104.46 394.01 104.578 394.36 104.731C395.046 105.556 395.68 106.424 396.256 107.33C396.656 107.932 396.952 108.596 397.134 109.296C397.556 110.665 397.977 112.07 398.363 113.439C398.435 113.763 398.435 114.099 398.363 114.423C398.285 115.531 398.441 116.644 398.82 117.688C398.819 117.788 398.844 117.886 398.894 117.972C398.943 118.058 399.014 118.13 399.101 118.18C399.637 119.276 399.936 120.472 399.978 121.691C399.768 122.71 399.698 123.693 399.487 124.746C399.487 124.746 399.487 125.027 399.487 125.168C399.321 125.256 399.189 125.397 399.113 125.569C399.037 125.741 399.02 125.933 399.065 126.116C399.052 126.571 398.969 127.02 398.82 127.45C398.632 127.695 398.407 127.908 398.153 128.082C397.942 128.258 397.064 128.082 396.994 128.082C396.923 128.082 396.327 128.082 395.94 128.082H395.589C394.895 127.407 394.282 126.652 393.763 125.835C393.763 125.835 393.763 125.027 393.342 124.22C393.175 123.597 392.964 122.986 392.71 122.394C392.71 122.218 392.71 122.007 392.71 121.797C392.71 121.586 391.797 119.233 391.762 119.128C391.727 119.023 391.411 118.11 391.762 117.478C391.786 117.429 391.799 117.374 391.799 117.32C391.799 117.265 391.786 117.211 391.762 117.162C391.531 116.253 391.389 115.324 391.34 114.388C391.256 113.923 391.139 113.466 390.989 113.018C390.989 113.018 390.989 112.842 390.989 112.737C391.024 112.623 391.024 112.5 390.989 112.386C390.771 111.287 390.466 110.206 390.076 109.155C390.076 108.945 390.076 107.575 390.076 107.33C390.076 107.084 390.603 106.522 390.392 106.417Z" fill="#231F20"/>
<path d="M128.123 79.4485C128.403 79.905 127.736 80.1508 126.507 80.3615C125.96 80.4102 125.409 80.3383 124.892 80.1508C124.615 79.8731 124.368 79.5671 124.155 79.2378C124.155 79.0623 123.803 76.3584 123.698 75.4455C123.575 74.6072 123.575 73.7554 123.698 72.9172L124.4 68.0714C124.454 67.7244 124.573 67.3908 124.752 67.0882C125.295 65.9951 125.595 64.797 125.629 63.5768C125.669 63.4822 125.689 63.3808 125.689 63.2783C125.689 63.1758 125.669 63.0743 125.629 62.9798C125.44 61.817 125.44 60.6312 125.629 59.4684C126.069 58.5939 126.377 57.659 126.542 56.6943C126.542 56.6943 126.542 56.4485 126.542 56.2729C126.692 56.1635 126.803 56.0094 126.86 55.8327C126.917 55.6561 126.916 55.466 126.858 55.2897V53.9905C126.92 53.6998 127.014 53.417 127.139 53.1477C127.139 52.8668 127.806 52.6561 127.912 52.6912C128.017 52.7264 128.403 52.4806 128.614 52.3401C128.695 52.3176 128.78 52.3176 128.86 52.3401C130.003 53.0053 131.034 53.8467 131.915 54.8332C132.67 56.4877 133.247 58.2181 133.636 59.9951C133.705 60.2597 133.705 60.538 133.636 60.8027C133.636 60.8027 133.916 64.56 133.846 64.6653C133.846 65.4027 133.846 66.1401 133.179 66.7371C132.512 67.334 133.179 67.018 133.179 67.1584C132.975 68.3723 132.609 69.5533 132.09 70.6699C131.88 71.2317 131.774 71.8287 131.599 72.3905C131.423 72.9523 131.599 72.3905 131.599 72.6363C131.515 72.7574 131.445 72.8868 131.388 73.0226C130.94 74.2844 130.576 75.5748 130.3 76.8852C130.3 77.1661 129.387 78.4302 129.387 78.7814C129.387 79.1325 128.017 79.273 128.123 79.4485Z" fill="#231F20"/>
<path d="M77.206 112.667C77.7678 112.421 77.9083 113.229 77.9083 114.634C77.8641 115.3 77.6722 115.947 77.3464 116.53C77.021 116.81 76.668 117.057 76.293 117.267C74.9597 117.343 73.6232 117.343 72.2899 117.267C71.3763 117.198 70.4774 116.997 69.6212 116.67C67.9357 116.003 66.1098 115.406 64.5998 114.739C64.2325 114.562 63.8901 114.338 63.5815 114.072C62.5454 113.209 61.3533 112.554 60.0701 112.14C59.8594 112.14 59.6838 111.93 59.4029 112.14C57.9892 111.823 56.6447 111.252 55.4349 110.455C54.5571 109.612 53.6441 108.945 52.7311 108.208C52.7311 108.208 52.4151 108.208 52.38 107.821C52.3449 107.435 51.9235 107.084 51.6426 106.873C51.1984 106.511 50.7978 106.099 50.4487 105.644C50.2755 105.351 50.123 105.046 49.9922 104.731C49.9922 104.45 50.1678 103.889 50.2731 103.818C50.3784 103.748 50.4487 103.327 50.5189 103.046C50.5346 102.953 50.5346 102.858 50.5189 102.765C51.7744 102.391 53.0723 102.179 54.3815 102.133C54.3815 102.133 58.7006 103.221 59.1922 103.292C59.6838 103.362 59.6136 103.573 59.8243 103.748C60.0349 103.924 63.3357 104.626 63.3357 104.696C63.9678 105.012 64.6701 105.118 65.0563 105.925C65.1468 106.032 65.2703 106.107 65.4075 106.136C66.4854 106.619 67.5193 107.195 68.4976 107.856C69.0191 108.138 69.5587 108.384 70.1128 108.594C70.2187 108.648 70.3047 108.734 70.3586 108.84C70.3586 108.84 70.5693 109.05 70.6747 109.085C71.8943 109.721 73.1771 110.227 74.5021 110.595C74.8182 110.595 76.0121 111.754 76.3983 111.789C76.7846 111.824 76.9953 112.667 77.206 112.667Z" fill="#231F20"/>
<path d="M120.573 407.312C120.362 406.68 121.064 406.329 122.328 406.259C122.896 406.278 123.45 406.435 123.944 406.715C124.189 407.066 124.435 407.418 124.611 407.734C124.697 408.916 124.873 410.09 125.137 411.245C125.313 412.088 125.418 412.86 125.524 413.668C125.725 415.28 126.162 416.854 126.823 418.338C126.949 418.68 127.043 419.033 127.104 419.392C127.303 420.711 127.904 421.937 128.824 422.903C128.824 422.903 129.07 423.254 129.351 423.289C130.446 424.126 131.447 425.08 132.336 426.134C132.976 427.099 133.731 427.983 134.583 428.767C134.583 428.767 134.899 428.767 134.934 429.153C134.969 429.54 135.426 429.821 135.742 429.996C136.058 430.172 136.62 430.488 137.076 430.804C137.288 431.055 137.476 431.326 137.638 431.611C137.638 431.857 137.638 432.489 137.392 432.524C137.147 432.56 137.217 433.016 137.147 433.297C137.167 433.39 137.167 433.485 137.147 433.578C135.775 433.808 134.375 433.808 133.003 433.578C133.003 433.578 131.704 433.121 130.405 432.524C129.425 432.057 128.475 431.529 127.56 430.944C127.297 430.763 127.081 430.522 126.928 430.242C125.652 429.325 124.475 428.278 123.417 427.117C122.778 426.448 122.35 425.605 122.188 424.694C122.17 424.523 122.096 424.362 121.977 424.237C121.206 422.913 120.638 421.481 120.292 419.989C120.046 419.181 119.87 418.514 119.624 417.776C119.607 417.636 119.607 417.495 119.624 417.355C119.642 417.168 119.642 416.98 119.624 416.793C119.337 415.016 119.173 413.221 119.133 411.421C119.293 410.462 119.504 409.513 119.765 408.576C119.695 408.26 120.643 407.628 120.573 407.312Z" fill="#231F20"/>
</svg>
