<svg width="500" height="500" viewBox="0 0 500 500" fill="none" xmlns="http://www.w3.org/2000/svg">
<path d="M51.7126 110.612C16.4031 144.44 24.0173 397.453 51.7132 437.509C79.0635 477.065 436.654 441.151 439.076 425.325C439.138 424.92 439.041 424.516 439.122 424.114C452.411 357.94 453.378 305.316 430 144.563C429.841 143.47 430.584 142.407 431.664 142.175C438.196 140.77 459.342 134.858 468.609 115.837C479.641 93.1926 458.738 80.9993 444.803 73.4511C434.474 67.8564 415.214 79.8057 405.936 86.3655C404.323 87.5065 401.61 85.7906 401.77 83.8208C402.29 77.4366 401.662 67.2049 394.868 57.1933C383.836 40.9356 346.095 40.9356 342.611 57.1933C340.17 68.5864 344.857 80.2646 347.881 86.2333C348.675 87.8014 348.034 88.6824 346.324 88.2745C313.732 80.5001 84.3653 79.3291 51.7126 110.612Z" fill="white" stroke="#E1306C" stroke-opacity="0.3" stroke-width="5"/>
<path d="M313.924 121.745C292.483 121.038 270.758 121.427 249.068 121.427C227.379 121.427 205.76 122.312 184.177 123.585C168.397 124.47 152.722 125.991 137.119 127.796C123.418 129.282 109.827 131.646 96.4288 134.872C89.9193 136.356 83.5858 138.526 77.5346 141.347C74.8204 142.566 72.3134 144.202 70.1043 146.195L68.972 147.681C68.6981 148.14 68.4728 148.626 68.2998 149.131L67.7336 151.325L67.2383 153.731C66.1106 160.48 65.3311 167.282 64.9031 174.111C64.3723 181.188 64.0185 187.946 63.7354 194.881C63.1693 208.786 62.9924 222.691 63.0278 236.632C63.0278 261.4 64.2308 286.167 66.3537 310.617C67.6983 326.303 69.5735 341.918 71.9795 357.463C74.1964 372.919 77.4231 388.213 81.6389 403.248C84.6464 412.27 82.1343 412.164 77.0392 404.982C71.9442 397.799 66.0707 382.938 62.8863 364.716C58.0179 332.554 55.2169 300.113 54.5006 267.592C53.3482 234.99 54.0688 202.349 56.659 169.83C57.1897 164.912 57.6497 159.994 58.4635 154.97C58.8695 152.334 59.4248 149.723 60.1264 147.15C60.5779 145.531 61.3213 144.008 62.3201 142.656L63.8062 140.71L65.4338 139.189C69.6644 135.706 74.4481 132.955 79.5868 131.051C84.4803 129.204 89.4778 127.644 94.5535 126.381C114.216 121.729 134.207 118.595 154.35 117.004C198.189 113.112 242.098 112.405 285.902 112.369C299.418 112.369 312.934 112.617 326.45 113.324C340.057 113.881 353.608 115.406 366.998 117.889C372.2 118.886 377.303 120.342 382.248 122.241C384.844 123.253 387.304 124.585 389.572 126.204C391.817 127.875 393.756 129.922 395.304 132.254C398.347 136.652 400.842 141.405 402.734 146.407C404.655 151.243 406.308 156.18 407.688 161.197C412.785 181.072 416.334 201.312 418.303 221.736C421.628 253.156 423.504 284.045 424.282 315.252C424.282 322.116 424.636 328.839 424.636 335.774C424.636 361.461 423.574 369.635 421.098 375.048C420.614 376.277 420.022 377.461 419.329 378.586C417.347 380.957 416.321 370.484 416.073 351.802C415.684 324.097 414.906 295.615 413.207 266.884C411.828 237.943 408.531 209.126 403.336 180.622C401.406 170.233 398.552 160.038 394.809 150.158C393.036 145.501 390.657 141.099 387.732 137.066C387.087 136.211 386.377 135.407 385.609 134.66L384.618 133.811L383.415 132.962C381.445 131.774 379.358 130.79 377.188 130.025C367.202 126.853 356.886 124.835 346.441 124.01C335.826 122.913 324.893 122.347 314.031 122.029L313.924 121.745Z" fill="#231F20"/>
<path d="M308.829 305.097C305.872 303.777 302.79 302.757 299.629 302.054L297.4 301.523C296.94 301.523 296.799 301.913 296.692 302.266C296.586 302.62 296.692 302.266 296.692 303.009C296.692 303.752 296.692 304.142 296.692 304.743V308.281C296.537 317.27 296.892 326.259 297.754 335.207C298.143 339.241 298.78 343.204 299.558 347.131L301.186 354.632C301.646 357.145 301.929 359.657 302.212 362.169C302.212 363.726 301.009 363.973 299.205 363.053C296.844 361.746 295.044 359.618 294.145 357.074C291.503 346.651 289.984 335.976 289.616 325.23C289.616 318.755 288.519 312.138 288.731 305.274C288.731 304.319 288.731 303.399 288.944 302.408C288.981 301.78 289.052 301.154 289.156 300.533C289.156 299.825 289.404 299.117 289.581 298.41C289.908 297.11 290.525 295.9 291.385 294.872C291.812 294.365 292.361 293.975 292.98 293.74C293.599 293.505 294.268 293.431 294.923 293.527H299.028C300.195 293.527 300.974 293.916 302 294.093C303.859 294.511 305.69 295.043 307.484 295.685C311.763 297.239 315.935 299.071 319.974 301.17C326.06 304.283 331.756 307.928 337.665 311.324C342.123 313.978 346.723 316.207 351.217 318.401C352.207 318.932 353.233 319.321 354.189 319.887C355.546 320.456 356.713 321.401 357.55 322.611C358.062 323.564 358.213 324.67 357.975 325.725C357.975 326.326 357.975 326.928 357.727 327.459C357.302 329.228 354.896 329.865 351.747 328.909C343.172 324.964 334.946 320.3 327.157 314.969C321.279 311.316 315.128 308.122 308.758 305.415L308.829 305.097Z" fill="#231F20"/>
<path d="M341.523 347.308C345.768 351.447 350.12 355.516 354.614 359.408C356.242 360.859 358.152 362.027 359.709 363.442C365.547 368.466 371.491 373.278 377.683 377.807C380.418 379.78 383.292 381.554 386.281 383.115C390.067 384.99 393.995 387.042 397.321 388.387C398.241 388.74 398.417 390.226 396.967 391.642C395.994 392.441 394.843 392.993 393.611 393.252C392.379 393.511 391.102 393.468 389.89 393.128C385.354 391.736 381.032 389.724 377.046 387.148C373.081 384.786 369.359 382.036 365.936 378.939C361.797 375.401 356.985 372.288 352.633 368.749C348.281 365.211 343.115 360.859 338.692 356.719C335.897 354.172 333.172 351.554 330.448 348.935C326.343 344.937 322.416 340.727 318.453 336.622C315.375 333.402 312.049 330.466 309.077 326.927C308.44 326.149 307.732 325.371 307.166 324.521C306.65 323.844 306.266 323.076 306.034 322.257C305.837 321.677 305.753 321.064 305.786 320.452C306.048 319.432 306.601 318.509 307.379 317.799C307.69 317.494 308.021 317.21 308.369 316.95C308.698 316.782 309.062 316.694 309.431 316.694C309.8 316.694 310.163 316.782 310.492 316.95C311.556 317.199 312.541 317.71 313.358 318.436C318.17 323.425 323.407 329.05 328.997 334.711C333.137 338.887 337.383 343.062 341.77 347.131L341.523 347.308Z" fill="#231F20"/>
<path d="M255.791 308.139C256.675 308.139 256.887 309.484 256.109 311.111C255.675 311.834 255.097 312.46 254.411 312.951L252.995 313.517C252.783 313.517 249.457 312.916 248.042 312.916C246.838 312.826 245.649 312.589 244.504 312.208C242.204 311.571 239.904 310.793 237.427 310.156C236.909 310 236.419 309.761 235.976 309.448C234.409 308.395 232.615 307.728 230.74 307.502C230.421 307.502 230.138 307.502 229.749 307.502C227.704 307.534 225.669 307.211 223.734 306.547C222.283 305.698 220.833 304.919 219.347 304.141C219.099 304.141 218.851 304.141 218.71 303.716C218.356 302.761 217.825 302.867 217.365 302.725C216.661 302.523 215.993 302.213 215.384 301.806C215.039 301.451 214.72 301.072 214.429 300.673C214.324 300.446 214.27 300.198 214.27 299.948C214.27 299.698 214.324 299.45 214.429 299.223C214.747 298.904 214.429 298.409 214.429 297.984C214.411 297.831 214.411 297.677 214.429 297.524C215.132 296.865 215.931 296.316 216.799 295.897C217.665 295.382 218.609 295.012 219.594 294.8H223.133C224.866 294.8 226.671 295.012 227.06 294.8C227.452 294.867 227.818 295.038 228.122 295.295C228.122 295.295 233.394 295.861 233.606 295.967C234.597 296.357 235.693 296.321 236.472 297.347C236.472 297.56 236.861 297.56 237.038 297.63C238.792 298.103 240.489 298.768 242.098 299.612C242.911 300.001 243.831 300.213 244.681 300.532C244.681 300.532 244.964 300.744 245.105 300.85C245.259 301 245.439 301.12 245.636 301.204C247.723 301.876 249.528 303.221 251.651 303.893C252.146 303.893 253.986 305.981 254.588 306.193C255.189 306.405 255.437 308.139 255.791 308.139Z" fill="#231F20"/>
<path d="M279.249 277.675C280.063 277.675 279.461 278.418 279.249 280.364C279.249 280.966 278.471 282.593 278.117 282.699C277.437 282.885 276.734 282.969 276.029 282.947C274.178 282.174 272.381 281.275 270.651 280.258C269.517 279.636 268.489 278.835 267.608 277.887C265.769 276.048 264.07 274.349 262.23 272.439C261.855 272.009 261.555 271.518 261.346 270.988C260.566 269.217 259.475 267.599 258.126 266.211C257.914 265.999 257.772 265.681 257.312 265.645C255.624 264.263 254.249 262.539 253.279 260.585C253.066 259.666 252.819 258.852 252.571 257.967L251.969 255.243C251.969 254.995 251.722 254.783 251.969 254.394C252.535 253.438 252.146 253.049 251.969 252.518C251.716 251.682 251.644 250.802 251.757 249.935C251.924 249.34 252.213 248.786 252.606 248.308C252.889 247.883 253.632 247.989 253.809 248.06C253.986 248.131 254.552 248.06 254.871 248.06H255.26C256.074 248.265 256.878 248.513 257.666 248.803C258.44 249.09 259.177 249.47 259.86 249.935C259.86 249.935 260.815 250.961 261.876 251.988C262.938 253.014 263.929 254.252 264.176 254.429C264.424 254.606 264.459 255.066 264.53 255.42C264.601 255.773 267.856 258.746 268.068 258.958C268.564 259.772 269.413 260.302 269.307 261.541C269.307 261.788 269.307 261.895 269.59 262.036C270.575 263.34 271.428 264.739 272.137 266.211C272.593 266.889 273.089 267.539 273.623 268.157C273.638 268.31 273.638 268.464 273.623 268.617C273.633 268.823 273.708 269.021 273.836 269.183C274.883 270.759 276.067 272.239 277.374 273.606C277.728 273.925 278.471 276.012 278.895 276.26C279.32 276.508 278.931 277.64 279.249 277.675Z" fill="#231F20"/>
<path d="M315.41 269.36C315.941 269.678 315.056 269.926 313.499 270.987C312.78 271.439 311.971 271.729 311.129 271.837C310.539 271.622 309.989 271.311 309.501 270.917C309.086 270.157 308.765 269.349 308.546 268.511C308.227 267.378 307.909 266.069 307.803 265.468C307.592 264.298 307.592 263.099 307.803 261.929C308.135 259.725 308.583 257.54 309.147 255.384C309.284 254.897 309.512 254.441 309.819 254.039C310.804 252.689 311.492 251.145 311.836 249.51C311.9 249.371 311.933 249.221 311.933 249.068C311.933 248.915 311.9 248.764 311.836 248.626C312.031 246.771 312.661 244.989 313.676 243.424C314.844 242.363 315.834 241.231 316.967 240.169C316.967 240.169 316.967 239.78 317.568 239.78C318.559 239.78 318.665 239.391 318.948 239.037C319.433 238.573 319.981 238.179 320.576 237.869C321.045 237.808 321.521 237.808 321.991 237.869C322.416 237.869 323.3 238.683 323.371 238.825C323.442 238.966 324.149 239.426 324.574 239.709L324.998 240.028C325.201 240.746 325.343 241.48 325.423 242.221C325.619 242.947 325.69 243.701 325.635 244.451C325.635 244.451 325.175 245.547 324.786 246.68C324.477 247.537 324.217 248.411 324.008 249.298C324.008 249.581 323.654 249.722 323.442 249.935C323.229 250.147 322.522 253.473 322.451 253.721C322.097 254.393 322.097 255.171 321.106 255.631C320.929 255.631 320.894 255.879 320.859 256.021C320.445 257.249 319.912 258.435 319.267 259.559C319.036 260.168 318.859 260.795 318.736 261.434C318.736 261.434 318.736 261.646 318.453 261.753C318.34 261.846 318.254 261.968 318.205 262.106C317.686 263.522 317.342 264.995 317.179 266.494C317.179 266.848 316.188 268.227 316.294 268.581C316.401 268.935 315.198 269.218 315.41 269.36Z" fill="#231F20"/>
<path d="M118.083 174.5C119.281 174.764 120.394 175.323 121.321 176.126C122.247 176.93 122.959 177.952 123.39 179.1C127.494 190.104 108.919 190.741 109.025 180.94C109.078 179.872 109.373 178.829 109.887 177.891C110.401 176.953 111.12 176.144 111.992 175.524C112.864 174.904 113.865 174.49 114.92 174.313C115.975 174.135 117.056 174.2 118.083 174.5Z" fill="#231F20"/>
<path d="M146.317 171.528C147.512 171.786 148.624 172.338 149.551 173.135C150.478 173.933 151.191 174.949 151.625 176.093C155.729 187.097 137.153 187.733 137.259 177.933C137.317 176.867 137.616 175.829 138.132 174.895C138.648 173.961 139.369 173.156 140.24 172.541C141.111 171.925 142.11 171.514 143.163 171.338C144.215 171.163 145.293 171.228 146.317 171.528Z" fill="#231F20"/>
<path d="M174.553 168.485C175.746 168.76 176.854 169.323 177.779 170.125C178.704 170.927 179.419 171.943 179.861 173.085C183.965 184.088 165.389 184.725 165.496 174.924C165.549 173.856 165.843 172.814 166.357 171.876C166.871 170.937 167.591 170.128 168.463 169.508C169.335 168.888 170.336 168.474 171.391 168.297C172.446 168.12 173.527 168.184 174.553 168.485Z" fill="#231F20"/>
<path d="M262.302 416.516C247.689 417.011 233.076 417.33 218.463 417.578C213.12 417.578 207.848 417.931 202.47 417.967C183.646 417.967 164.858 417.755 146.07 417.365C137.72 417.365 129.334 417.365 121.09 417.365H105.168C99.9317 417.365 94.5536 417.365 89.7416 417.365C89.3281 417.503 88.8813 417.503 88.4678 417.365C88.1805 417.172 87.939 416.919 87.7602 416.622C87.3002 416.021 87.5125 414.712 88.9632 413.473C93.0607 410.472 98.0388 408.916 103.116 409.05C124.947 409.05 146.424 409.793 168.255 410.643C181.311 411.173 194.898 410.643 208.237 410.43C222.909 410.218 237.593 409.876 252.288 409.404C261.311 409.121 270.369 408.803 279.391 408.343C293.049 407.706 306.777 406.963 320.329 405.901C330.943 405.017 341.134 403.708 351.536 402.363L358.329 401.549C366.892 400.665 369.652 400.912 371.669 402.752C372.158 403.132 372.608 403.558 373.013 404.026C374.004 405.512 370.607 407.104 364.38 408.095C345.839 411.103 326.202 412.907 306.423 414.252C291.74 415.242 276.95 415.95 262.195 416.622L262.302 416.516Z" fill="#231F20"/>
<path d="M256.498 421.151C243.879 421.575 231.247 421.917 218.604 422.177L204.805 422.531C188.564 422.707 172.324 422.531 156.083 422.531H134.5C125.336 422.531 116.101 422.531 107.008 422.283C101.276 422.071 108.459 417.471 119.109 417.542C137.861 417.542 156.508 418.108 175.402 418.532C186.689 418.851 198.436 418.532 209.971 418.214C222.638 417.966 235.34 417.683 248.042 417.223C255.862 416.975 263.646 416.586 271.465 416.232C283.283 415.666 295.171 415.065 306.848 414.18C315.941 413.437 324.857 412.553 333.844 411.562L339.718 410.925C347.148 410.253 349.519 410.359 351.217 411.42C351.615 411.635 351.994 411.884 352.349 412.163C353.128 413.048 350.156 414.039 344.778 414.782C328.714 416.94 311.73 418.32 294.641 419.452C281.974 420.301 269.201 420.903 256.463 421.504L256.498 421.151Z" fill="#231F20"/>
<path d="M385.397 84.6992C385.397 85.796 384.866 86.9283 384.654 87.9897C384.654 88.4143 384.654 88.8035 384.654 89.1927C384.3 90.608 383.804 91.988 383.486 93.3679C383.362 93.9749 383.362 94.6007 383.486 95.2078C383.486 95.9862 384.087 96.7646 383.486 97.543C382.884 98.3214 376.409 97.543 376.409 96.5169C376.157 94.9047 376.469 93.2547 377.294 91.8464C377.825 90.8911 377.294 89.9358 377.542 88.9805L377.931 85.796C378.048 85.1404 378.131 84.479 378.179 83.8146C378.302 82.8396 378.302 81.8529 378.179 80.8779C377.941 80.1252 377.621 79.4012 377.223 78.7196C377.223 78.7196 377.011 78.4011 377.223 78.2242C377.436 78.0473 377.223 77.6935 377.896 77.5166C378.434 77.31 378.991 77.156 379.558 77.0566L380.514 76.8443C381.542 76.7199 382.585 76.8411 383.557 77.1981C384.284 77.6299 384.89 78.2397 385.317 78.97C385.744 79.7004 385.979 80.5274 385.998 81.3732C385.998 82.4701 385.998 83.6023 385.998 84.6992H385.397Z" fill="#231F20"/>
<path d="M436.1 111.661L430.191 113.82C429.484 114.103 428.847 114.527 428.104 114.775L420.284 117.216C419.137 117.593 418.025 118.066 416.958 118.632C415.653 119.479 414.158 119.99 412.606 120.118C411.616 120.118 411.014 115.164 412.606 114.315C415.186 112.777 417.959 111.588 420.85 110.777C422.597 110.127 424.26 109.272 425.804 108.229C427.644 107.274 429.555 106.495 431.465 105.611L435.003 104.019C436.773 103.17 438.542 102.427 440.311 101.436C442.08 100.445 442.681 99.4898 443.849 98.7467C444.125 98.5589 444.422 98.4045 444.734 98.2868C445.937 97.9329 446.538 98.2868 447.423 99.6313C447.423 99.9497 447.847 100.233 448.024 100.551C448.294 101.032 448.435 101.574 448.435 102.126C448.435 102.677 448.294 103.219 448.024 103.7C446.658 106.186 444.487 108.132 441.868 109.22C440.028 110.104 438.117 110.883 436.206 111.732L436.1 111.661Z" fill="#231F20"/>
<path d="M303.841 141.063C285.265 140.462 266.512 140.674 247.83 140.851C229.148 141.028 210.466 141.629 191.855 142.691C178.268 143.505 164.717 144.778 151.272 146.229C139.443 147.463 127.707 149.46 116.137 152.209C110.517 153.489 105.049 155.363 99.8256 157.799C97.4798 158.927 95.3202 160.406 93.4214 162.186L92.4307 163.496C92.1883 163.899 91.9868 164.326 91.8292 164.769C91.481 166.121 91.2093 167.491 91.0154 168.874C89.3121 180.598 88.3078 192.413 88.0079 204.256C87.5479 216.251 87.371 228.245 87.4064 240.24C87.4064 261.469 88.4679 283.017 90.2724 303.928C91.44 317.444 93.0322 330.96 95.1198 344.335C97.03 357.667 99.8195 370.858 103.47 383.822C106.088 391.606 103.965 391.5 99.6487 385.308C93.4102 374.686 89.2776 362.961 87.4772 350.775C83.3229 323.039 80.9592 295.064 80.4007 267.024C79.3893 238.907 80.0037 210.755 82.2406 182.708C82.6652 178.498 83.0544 174.252 83.762 169.9C84.1112 167.632 84.5956 165.387 85.2127 163.177C85.5831 161.783 86.2199 160.473 87.088 159.32L88.3263 157.657L89.7416 156.348C93.372 153.303 97.5019 150.909 101.949 149.272C106.101 147.694 110.343 146.359 114.651 145.274C131.614 141.265 148.861 138.568 166.238 137.206C203.991 133.845 241.851 133.208 279.639 133.173C291.28 133.173 302.956 133.385 314.632 133.987C326.268 134.484 337.855 135.796 349.307 137.914C353.781 138.788 358.173 140.043 362.434 141.665C364.667 142.589 366.781 143.776 368.732 145.203C370.809 146.575 372.62 148.313 374.075 150.333C376.724 154.098 378.877 158.189 380.479 162.505C382.159 166.661 383.589 170.915 384.76 175.243C389.083 192.426 392.041 209.924 393.606 227.573C396.507 254.676 398.099 281.319 398.736 308.21C398.736 314.154 399.055 319.921 399.055 325.901C399.055 348.05 398.135 355.091 396.012 359.797C395.586 360.856 395.09 361.884 394.526 362.875C392.863 364.892 392.013 355.799 391.837 339.771C391.518 315.852 390.846 291.297 389.395 266.494C388.188 241.567 385.351 216.747 380.903 192.191C379.217 183.216 376.742 174.407 373.508 165.866C372.026 161.855 370.015 158.059 367.529 154.579C366.989 153.811 366.372 153.1 365.689 152.456L364.84 151.713L363.778 150.97C362.065 149.94 360.251 149.086 358.365 148.423C349.744 145.691 340.842 143.946 331.828 143.221C322.593 142.266 313.252 141.771 303.876 141.523L303.841 141.063Z" fill="#231F20"/>
<path d="M258.056 396.949H220.905L207.318 397.161C191.396 397.161 175.474 396.772 159.516 396.56C152.44 396.56 145.363 396.56 138.287 396.56C129.232 396.783 120.173 396.334 111.184 395.215C105.594 394.508 113.024 391.359 123.285 391.04C141.542 391.04 159.906 391.04 178.411 391.465C189.485 391.677 201.02 391.182 212.342 391.04L249.741 390.545L272.775 390.156C284.381 389.873 296.057 389.696 307.592 389.2C316.543 388.847 325.283 388.104 334.199 387.537C336.145 387.537 338.056 387.184 340.002 387.184C347.326 387.184 349.661 387.785 351.254 389.165C351.639 389.46 351.995 389.791 352.315 390.156C353.058 391.182 350.086 392.279 344.779 393.163C328.429 395.097 311.989 396.172 295.526 396.383L258.056 397.091V396.949Z" fill="#231F20"/>
<path d="M78.8087 298.339C78.0657 287.229 77.5703 276.118 77.1104 265.008C76.9334 260.975 76.5089 256.906 76.4381 252.872C76.1196 238.719 76.2258 224.248 76.6504 209.953C76.8981 203.585 76.8627 197.18 77.0396 190.847C77.358 182.709 77.0396 174.429 80.2594 166.079C81.3562 163.461 83.4438 164.841 85.2129 167.459C87.3737 170.562 88.4326 174.299 88.2204 178.074C86.9113 193.784 86.982 210.166 85.8498 226.618C85.2483 236.49 86.0975 246.716 86.4513 256.835C86.8405 267.91 87.3005 279.02 87.9727 290.13C88.362 296.959 88.8219 303.788 89.4234 310.581C90.3434 320.913 91.1218 331.28 92.6432 341.434C93.8901 349.203 95.5316 356.902 97.5614 364.504C97.986 366.167 98.5167 367.759 98.9767 369.386C99.6285 371.458 100.125 373.575 100.463 375.72C100.541 376.949 100.272 378.175 99.6843 379.258C99.472 379.754 99.3659 380.32 99.2244 380.673C99.0828 381.027 98.269 381.169 96.8891 380.39C96.0719 379.942 95.3788 379.298 94.8723 378.515C94.1486 377.604 93.5644 376.59 93.1386 375.508C90.2931 368.64 88.0554 361.537 86.4513 354.278C84.7883 346.954 83.4084 339.488 82.2762 332.023C80.4717 320.913 79.481 309.696 78.7379 298.48L78.8087 298.339Z" fill="#231F20"/>
</svg>
